<?xml version="1.0" encoding="utf-8"?>
<!-- Generator: Adobe Illustrator 27.0.0, SVG Export Plug-In . SVG Version: 6.00 Build 0)  -->
<svg version="1.1" id="Ebene_1" shape-rendering="auto"
	 xmlns="http://www.w3.org/2000/svg" xmlns:xlink="http://www.w3.org/1999/xlink" x="0px" y="0px" viewBox="0 0 100 100"
	 style="enable-background:new 0 0 100 100;" xml:space="preserve">
<style type="text/css">
	.st0{display:none;fill:#FFFFFF;}
</style>
<rect class="st0" width="100" height="100"/>
<rect x="25.9" y="7.5" width="2.3" height="2.3"/>
<rect x="28.1" y="7.5" width="2.3" height="2.3"/>
<rect x="42" y="7.5" width="2.3" height="2.3"/>
<rect x="44.2" y="7.5" width="2.3" height="2.3"/>
<rect x="48.9" y="7.5" width="2.3" height="2.3"/>
<rect x="53.5" y="7.5" width="2.3" height="2.3"/>
<rect x="55.8" y="7.5" width="2.3" height="2.3"/>
<rect x="58" y="7.5" width="2.3" height="2.3"/>
<rect x="69.6" y="7.5" width="2.3" height="2.3"/>
<rect x="71.8" y="7.5" width="2.3" height="2.3"/>
<rect x="39.7" y="9.8" width="2.3" height="2.3"/>
<rect x="42" y="9.8" width="2.3" height="2.3"/>
<rect x="46.5" y="9.8" width="2.3" height="2.3"/>
<rect x="48.9" y="9.8" width="2.3" height="2.3"/>
<rect x="53.5" y="9.8" width="2.3" height="2.3"/>
<rect x="55.8" y="9.8" width="2.3" height="2.3"/>
<rect x="58" y="9.8" width="2.3" height="2.3"/>
<rect x="60.4" y="9.8" width="2.3" height="2.3"/>
<rect x="65" y="9.8" width="2.3" height="2.3"/>
<rect x="71.8" y="9.8" width="2.3" height="2.3"/>
<rect x="25.9" y="12.1" width="2.3" height="2.3"/>
<rect x="32.8" y="12.1" width="2.3" height="2.3"/>
<rect x="35" y="12.1" width="2.3" height="2.3"/>
<rect x="37.4" y="12.1" width="2.3" height="2.3"/>
<rect x="39.7" y="12.1" width="2.3" height="2.3"/>
<rect x="42" y="12.1" width="2.3" height="2.3"/>
<rect x="46.5" y="12.1" width="2.3" height="2.3"/>
<rect x="48.9" y="12.1" width="2.3" height="2.3"/>
<rect x="51.2" y="12.1" width="2.3" height="2.3"/>
<rect x="53.5" y="12.1" width="2.3" height="2.3"/>
<rect x="60.4" y="12.1" width="2.3" height="2.3"/>
<rect x="62.7" y="12.1" width="2.3" height="2.3"/>
<rect x="69.6" y="12.1" width="2.3" height="2.3"/>
<rect x="25.9" y="14.4" width="2.3" height="2.3"/>
<rect x="28.1" y="14.4" width="2.3" height="2.3"/>
<rect x="32.8" y="14.4" width="2.3" height="2.3"/>
<rect x="48.9" y="14.4" width="2.3" height="2.3"/>
<rect x="53.5" y="14.4" width="2.3" height="2.3"/>
<rect x="65" y="14.4" width="2.3" height="2.3"/>
<rect x="67.2" y="14.4" width="2.3" height="2.3"/>
<rect x="69.6" y="14.4" width="2.3" height="2.3"/>
<rect x="25.9" y="16.6" width="2.3" height="2.3"/>
<rect x="28.1" y="16.6" width="2.3" height="2.3"/>
<rect x="30.5" y="16.6" width="2.3" height="2.3"/>
<rect x="32.8" y="16.6" width="2.3" height="2.3"/>
<rect x="37.4" y="16.6" width="2.3" height="2.3"/>
<rect x="46.5" y="16.6" width="2.3" height="2.3"/>
<rect x="48.9" y="16.6" width="2.3" height="2.3"/>
<rect x="51.2" y="16.6" width="2.3" height="2.3"/>
<rect x="58" y="16.6" width="2.3" height="2.3"/>
<rect x="60.4" y="16.6" width="2.3" height="2.3"/>
<rect x="62.7" y="16.6" width="2.3" height="2.3"/>
<rect x="69.6" y="16.6" width="2.3" height="2.3"/>
<rect x="71.8" y="16.6" width="2.3" height="2.3"/>
<rect x="28.1" y="19" width="2.3" height="2.3"/>
<rect x="35" y="19" width="2.3" height="2.3"/>
<rect x="39.7" y="19" width="2.3" height="2.3"/>
<rect x="44.2" y="19" width="2.3" height="2.3"/>
<rect x="46.5" y="19" width="2.3" height="2.3"/>
<rect x="55.8" y="19" width="2.3" height="2.3"/>
<rect x="62.7" y="19" width="2.3" height="2.3"/>
<rect x="67.2" y="19" width="2.3" height="2.3"/>
<rect x="69.6" y="19" width="2.3" height="2.3"/>
<rect x="71.8" y="19" width="2.3" height="2.3"/>
<rect x="25.9" y="21.2" width="2.3" height="2.3"/>
<rect x="30.5" y="21.2" width="2.3" height="2.3"/>
<rect x="35" y="21.2" width="2.3" height="2.3"/>
<rect x="39.7" y="21.2" width="2.3" height="2.3"/>
<rect x="44.2" y="21.2" width="2.3" height="2.3"/>
<rect x="48.9" y="21.2" width="2.3" height="2.3"/>
<rect x="53.5" y="21.2" width="2.3" height="2.3"/>
<rect x="58" y="21.2" width="2.3" height="2.3"/>
<rect x="62.7" y="21.2" width="2.3" height="2.3"/>
<rect x="67.2" y="21.2" width="2.3" height="2.3"/>
<rect x="71.8" y="21.2" width="2.3" height="2.3"/>
<rect x="28.1" y="23.6" width="2.3" height="2.3"/>
<rect x="32.8" y="23.6" width="2.3" height="2.3"/>
<rect x="37.4" y="23.6" width="2.3" height="2.3"/>
<rect x="39.7" y="23.6" width="2.3" height="2.3"/>
<rect x="48.9" y="23.6" width="2.3" height="2.3"/>
<rect x="58" y="23.6" width="2.3" height="2.3"/>
<rect x="62.7" y="23.6" width="2.3" height="2.3"/>
<rect x="69.6" y="23.6" width="2.3" height="2.3"/>
<rect x="71.8" y="23.6" width="2.3" height="2.3"/>
<rect x="7.5" y="25.9" width="2.3" height="2.3"/>
<rect x="9.8" y="25.9" width="2.3" height="2.3"/>
<rect x="12.1" y="25.9" width="2.3" height="2.3"/>
<rect x="14.4" y="25.9" width="2.3" height="2.3"/>
<rect x="21.2" y="25.9" width="2.3" height="2.3"/>
<rect x="25.9" y="25.9" width="2.3" height="2.3"/>
<rect x="37.4" y="25.9" width="2.3" height="2.3"/>
<rect x="39.7" y="25.9" width="2.3" height="2.3"/>
<rect x="46.5" y="25.9" width="2.3" height="2.3"/>
<rect x="51.2" y="25.9" width="2.3" height="2.3"/>
<rect x="62.7" y="25.9" width="2.3" height="2.3"/>
<rect x="65" y="25.9" width="2.3" height="2.3"/>
<rect x="67.2" y="25.9" width="2.3" height="2.3"/>
<rect x="74.2" y="25.9" width="2.3" height="2.3"/>
<rect x="81.1" y="25.9" width="2.3" height="2.3"/>
<rect x="83.3" y="25.9" width="2.3" height="2.3"/>
<rect x="85.7" y="25.9" width="2.3" height="2.3"/>
<rect x="90.2" y="25.9" width="2.3" height="2.3"/>
<rect x="9.8" y="28.1" width="2.3" height="2.3"/>
<rect x="19" y="28.1" width="2.3" height="2.3"/>
<rect x="25.9" y="28.1" width="2.3" height="2.3"/>
<rect x="48.9" y="28.1" width="2.3" height="2.3"/>
<rect x="51.2" y="28.1" width="2.3" height="2.3"/>
<rect x="55.8" y="28.1" width="2.3" height="2.3"/>
<rect x="62.7" y="28.1" width="2.3" height="2.3"/>
<rect x="67.2" y="28.1" width="2.3" height="2.3"/>
<rect x="71.8" y="28.1" width="2.3" height="2.3"/>
<rect x="76.5" y="28.1" width="2.3" height="2.3"/>
<rect x="88" y="28.1" width="2.3" height="2.3"/>
<rect x="90.2" y="28.1" width="2.3" height="2.3"/>
<rect x="7.5" y="30.5" width="2.3" height="2.3"/>
<rect x="12.1" y="30.5" width="2.3" height="2.3"/>
<rect x="14.4" y="30.5" width="2.3" height="2.3"/>
<rect x="16.6" y="30.5" width="2.3" height="2.3"/>
<rect x="19" y="30.5" width="2.3" height="2.3"/>
<rect x="21.2" y="30.5" width="2.3" height="2.3"/>
<rect x="25.9" y="30.5" width="2.3" height="2.3"/>
<rect x="28.1" y="30.5" width="2.3" height="2.3"/>
<rect x="39.7" y="30.5" width="2.3" height="2.3"/>
<rect x="42" y="30.5" width="2.3" height="2.3"/>
<rect x="44.2" y="30.5" width="2.3" height="2.3"/>
<rect x="46.5" y="30.5" width="2.3" height="2.3"/>
<rect x="48.9" y="30.5" width="2.3" height="2.3"/>
<rect x="53.5" y="30.5" width="2.3" height="2.3"/>
<rect x="55.8" y="30.5" width="2.3" height="2.3"/>
<rect x="58" y="30.5" width="2.3" height="2.3"/>
<rect x="60.4" y="30.5" width="2.3" height="2.3"/>
<rect x="62.7" y="30.5" width="2.3" height="2.3"/>
<rect x="65" y="30.5" width="2.3" height="2.3"/>
<rect x="69.6" y="30.5" width="2.3" height="2.3"/>
<rect x="81.1" y="30.5" width="2.3" height="2.3"/>
<rect x="83.3" y="30.5" width="2.3" height="2.3"/>
<rect x="90.2" y="30.5" width="2.3" height="2.3"/>
<rect x="12.1" y="32.8" width="2.3" height="2.3"/>
<rect x="16.6" y="32.8" width="2.3" height="2.3"/>
<rect x="19" y="32.8" width="2.3" height="2.3"/>
<rect x="23.6" y="32.8" width="2.3" height="2.3"/>
<rect x="30.5" y="32.8" width="2.3" height="2.3"/>
<rect x="32.8" y="32.8" width="2.3" height="2.3"/>
<rect x="35" y="32.8" width="2.3" height="2.3"/>
<rect x="37.4" y="32.8" width="2.3" height="2.3"/>
<rect x="39.7" y="32.8" width="2.3" height="2.3"/>
<rect x="42" y="32.8" width="2.3" height="2.3"/>
<rect x="44.2" y="32.8" width="2.3" height="2.3"/>
<rect x="46.5" y="32.8" width="2.3" height="2.3"/>
<rect x="51.2" y="32.8" width="2.3" height="2.3"/>
<rect x="53.5" y="32.8" width="2.3" height="2.3"/>
<rect x="55.8" y="32.8" width="2.3" height="2.3"/>
<rect x="58" y="32.8" width="2.3" height="2.3"/>
<rect x="62.7" y="32.8" width="2.3" height="2.3"/>
<rect x="65" y="32.8" width="2.3" height="2.3"/>
<rect x="67.2" y="32.8" width="2.3" height="2.3"/>
<rect x="69.6" y="32.8" width="2.3" height="2.3"/>
<rect x="74.2" y="32.8" width="2.3" height="2.3"/>
<rect x="76.5" y="32.8" width="2.3" height="2.3"/>
<rect x="85.7" y="32.8" width="2.3" height="2.3"/>
<rect x="7.5" y="35" width="2.3" height="2.3"/>
<rect x="19" y="35" width="2.3" height="2.3"/>
<rect x="21.2" y="35" width="2.3" height="2.3"/>
<rect x="25.9" y="35" width="2.3" height="2.3"/>
<rect x="28.1" y="35" width="2.3" height="2.3"/>
<rect x="30.5" y="35" width="2.3" height="2.3"/>
<rect x="32.8" y="35" width="2.3" height="2.3"/>
<rect x="42" y="35" width="2.3" height="2.3"/>
<rect x="44.2" y="35" width="2.3" height="2.3"/>
<rect x="48.9" y="35" width="2.3" height="2.3"/>
<rect x="53.5" y="35" width="2.3" height="2.3"/>
<rect x="55.8" y="35" width="2.3" height="2.3"/>
<rect x="62.7" y="35" width="2.3" height="2.3"/>
<rect x="65" y="35" width="2.3" height="2.3"/>
<rect x="69.6" y="35" width="2.3" height="2.3"/>
<rect x="76.5" y="35" width="2.3" height="2.3"/>
<rect x="81.1" y="35" width="2.3" height="2.3"/>
<rect x="85.7" y="35" width="2.3" height="2.3"/>
<rect x="88" y="35" width="2.3" height="2.3"/>
<rect x="90.2" y="35" width="2.3" height="2.3"/>
<rect x="7.5" y="37.4" width="2.3" height="2.3"/>
<rect x="16.6" y="37.4" width="2.3" height="2.3"/>
<rect x="19" y="37.4" width="2.3" height="2.3"/>
<rect x="25.9" y="37.4" width="2.3" height="2.3"/>
<rect x="28.1" y="37.4" width="2.3" height="2.3"/>
<rect x="32.8" y="37.4" width="2.3" height="2.3"/>
<rect x="37.4" y="37.4" width="2.3" height="2.3"/>
<rect x="42" y="37.4" width="2.3" height="2.3"/>
<rect x="46.5" y="37.4" width="2.3" height="2.3"/>
<rect x="51.2" y="37.4" width="2.3" height="2.3"/>
<rect x="53.5" y="37.4" width="2.3" height="2.3"/>
<rect x="58" y="37.4" width="2.3" height="2.3"/>
<rect x="60.4" y="37.4" width="2.3" height="2.3"/>
<rect x="67.2" y="37.4" width="2.3" height="2.3"/>
<rect x="69.6" y="37.4" width="2.3" height="2.3"/>
<rect x="76.5" y="37.4" width="2.3" height="2.3"/>
<rect x="78.8" y="37.4" width="2.3" height="2.3"/>
<rect x="83.3" y="37.4" width="2.3" height="2.3"/>
<rect x="88" y="37.4" width="2.3" height="2.3"/>
<rect x="9.8" y="39.7" width="2.3" height="2.3"/>
<rect x="12.1" y="39.7" width="2.3" height="2.3"/>
<rect x="16.6" y="39.7" width="2.3" height="2.3"/>
<rect x="19" y="39.7" width="2.3" height="2.3"/>
<rect x="21.2" y="39.7" width="2.3" height="2.3"/>
<rect x="28.1" y="39.7" width="2.3" height="2.3"/>
<rect x="35" y="39.7" width="2.3" height="2.3"/>
<rect x="39.7" y="39.7" width="2.3" height="2.3"/>
<rect x="42" y="39.7" width="2.3" height="2.3"/>
<rect x="46.5" y="39.7" width="2.3" height="2.3"/>
<rect x="48.9" y="39.7" width="2.3" height="2.3"/>
<rect x="53.5" y="39.7" width="2.3" height="2.3"/>
<rect x="55.8" y="39.7" width="2.3" height="2.3"/>
<rect x="67.2" y="39.7" width="2.3" height="2.3"/>
<rect x="71.8" y="39.7" width="2.3" height="2.3"/>
<rect x="74.2" y="39.7" width="2.3" height="2.3"/>
<rect x="78.8" y="39.7" width="2.3" height="2.3"/>
<rect x="81.1" y="39.7" width="2.3" height="2.3"/>
<rect x="85.7" y="39.7" width="2.3" height="2.3"/>
<rect x="88" y="39.7" width="2.3" height="2.3"/>
<rect x="7.5" y="42" width="2.3" height="2.3"/>
<rect x="12.1" y="42" width="2.3" height="2.3"/>
<rect x="14.4" y="42" width="2.3" height="2.3"/>
<rect x="19" y="42" width="2.3" height="2.3"/>
<rect x="23.6" y="42" width="2.3" height="2.3"/>
<rect x="25.9" y="42" width="2.3" height="2.3"/>
<rect x="30.5" y="42" width="2.3" height="2.3"/>
<rect x="35" y="42" width="2.3" height="2.3"/>
<rect x="37.4" y="42" width="2.3" height="2.3"/>
<rect x="48.9" y="42" width="2.3" height="2.3"/>
<rect x="51.2" y="42" width="2.3" height="2.3"/>
<rect x="60.4" y="42" width="2.3" height="2.3"/>
<rect x="62.7" y="42" width="2.3" height="2.3"/>
<rect x="67.2" y="42" width="2.3" height="2.3"/>
<rect x="71.8" y="42" width="2.3" height="2.3"/>
<rect x="78.8" y="42" width="2.3" height="2.3"/>
<rect x="88" y="42" width="2.3" height="2.3"/>
<rect x="90.2" y="42" width="2.3" height="2.3"/>
<rect x="16.6" y="44.2" width="2.3" height="2.3"/>
<rect x="19" y="44.2" width="2.3" height="2.3"/>
<rect x="21.2" y="44.2" width="2.3" height="2.3"/>
<rect x="28.1" y="44.2" width="2.3" height="2.3"/>
<rect x="30.5" y="44.2" width="2.3" height="2.3"/>
<rect x="32.8" y="44.2" width="2.3" height="2.3"/>
<rect x="46.5" y="44.2" width="2.3" height="2.3"/>
<rect x="48.9" y="44.2" width="2.3" height="2.3"/>
<rect x="53.5" y="44.2" width="2.3" height="2.3"/>
<rect x="55.8" y="44.2" width="2.3" height="2.3"/>
<rect x="58" y="44.2" width="2.3" height="2.3"/>
<rect x="60.4" y="44.2" width="2.3" height="2.3"/>
<rect x="62.7" y="44.2" width="2.3" height="2.3"/>
<rect x="65" y="44.2" width="2.3" height="2.3"/>
<rect x="67.2" y="44.2" width="2.3" height="2.3"/>
<rect x="74.2" y="44.2" width="2.3" height="2.3"/>
<rect x="76.5" y="44.2" width="2.3" height="2.3"/>
<rect x="78.8" y="44.2" width="2.3" height="2.3"/>
<rect x="81.1" y="44.2" width="2.3" height="2.3"/>
<rect x="83.3" y="44.2" width="2.3" height="2.3"/>
<rect x="85.7" y="44.2" width="2.3" height="2.3"/>
<rect x="9.8" y="46.5" width="2.3" height="2.3"/>
<rect x="23.6" y="46.5" width="2.3" height="2.3"/>
<rect x="25.9" y="46.5" width="2.3" height="2.3"/>
<rect x="28.1" y="46.5" width="2.3" height="2.3"/>
<rect x="30.5" y="46.5" width="2.3" height="2.3"/>
<rect x="35" y="46.5" width="2.3" height="2.3"/>
<rect x="37.4" y="46.5" width="2.3" height="2.3"/>
<rect x="42" y="46.5" width="2.3" height="2.3"/>
<rect x="48.9" y="46.5" width="2.3" height="2.3"/>
<rect x="53.5" y="46.5" width="2.3" height="2.3"/>
<rect x="65" y="46.5" width="2.3" height="2.3"/>
<rect x="67.2" y="46.5" width="2.3" height="2.3"/>
<rect x="69.6" y="46.5" width="2.3" height="2.3"/>
<rect x="71.8" y="46.5" width="2.3" height="2.3"/>
<rect x="85.7" y="46.5" width="2.3" height="2.3"/>
<rect x="88" y="46.5" width="2.3" height="2.3"/>
<rect x="9.8" y="48.9" width="2.3" height="2.3"/>
<rect x="12.1" y="48.9" width="2.3" height="2.3"/>
<rect x="21.2" y="48.9" width="2.3" height="2.3"/>
<rect x="30.5" y="48.9" width="2.3" height="2.3"/>
<rect x="32.8" y="48.9" width="2.3" height="2.3"/>
<rect x="35" y="48.9" width="2.3" height="2.3"/>
<rect x="46.5" y="48.9" width="2.3" height="2.3"/>
<rect x="51.2" y="48.9" width="2.3" height="2.3"/>
<rect x="58" y="48.9" width="2.3" height="2.3"/>
<rect x="62.7" y="48.9" width="2.3" height="2.3"/>
<rect x="65" y="48.9" width="2.3" height="2.3"/>
<rect x="69.6" y="48.9" width="2.3" height="2.3"/>
<rect x="71.8" y="48.9" width="2.3" height="2.3"/>
<rect x="74.2" y="48.9" width="2.3" height="2.3"/>
<rect x="76.5" y="48.9" width="2.3" height="2.3"/>
<rect x="81.1" y="48.9" width="2.3" height="2.3"/>
<rect x="85.7" y="48.9" width="2.3" height="2.3"/>
<rect x="90.2" y="48.9" width="2.3" height="2.3"/>
<rect x="9.8" y="51.2" width="2.3" height="2.3"/>
<rect x="12.1" y="51.2" width="2.3" height="2.3"/>
<rect x="28.1" y="51.2" width="2.3" height="2.3"/>
<rect x="30.5" y="51.2" width="2.3" height="2.3"/>
<rect x="35" y="51.2" width="2.3" height="2.3"/>
<rect x="42" y="51.2" width="2.3" height="2.3"/>
<rect x="44.2" y="51.2" width="2.3" height="2.3"/>
<rect x="51.2" y="51.2" width="2.3" height="2.3"/>
<rect x="53.5" y="51.2" width="2.3" height="2.3"/>
<rect x="55.8" y="51.2" width="2.3" height="2.3"/>
<rect x="60.4" y="51.2" width="2.3" height="2.3"/>
<rect x="62.7" y="51.2" width="2.3" height="2.3"/>
<rect x="65" y="51.2" width="2.3" height="2.3"/>
<rect x="67.2" y="51.2" width="2.3" height="2.3"/>
<rect x="69.6" y="51.2" width="2.3" height="2.3"/>
<rect x="71.8" y="51.2" width="2.3" height="2.3"/>
<rect x="74.2" y="51.2" width="2.3" height="2.3"/>
<rect x="76.5" y="51.2" width="2.3" height="2.3"/>
<rect x="78.8" y="51.2" width="2.3" height="2.3"/>
<rect x="81.1" y="51.2" width="2.3" height="2.3"/>
<rect x="85.7" y="51.2" width="2.3" height="2.3"/>
<rect x="88" y="51.2" width="2.3" height="2.3"/>
<rect x="7.5" y="53.5" width="2.3" height="2.3"/>
<rect x="9.8" y="53.5" width="2.3" height="2.3"/>
<rect x="12.1" y="53.5" width="2.3" height="2.3"/>
<rect x="14.4" y="53.5" width="2.3" height="2.3"/>
<rect x="16.6" y="53.5" width="2.3" height="2.3"/>
<rect x="19" y="53.5" width="2.3" height="2.3"/>
<rect x="21.2" y="53.5" width="2.3" height="2.3"/>
<rect x="23.6" y="53.5" width="2.3" height="2.3"/>
<rect x="30.5" y="53.5" width="2.3" height="2.3"/>
<rect x="32.8" y="53.5" width="2.3" height="2.3"/>
<rect x="35" y="53.5" width="2.3" height="2.3"/>
<rect x="37.4" y="53.5" width="2.3" height="2.3"/>
<rect x="48.9" y="53.5" width="2.3" height="2.3"/>
<rect x="51.2" y="53.5" width="2.3" height="2.3"/>
<rect x="55.8" y="53.5" width="2.3" height="2.3"/>
<rect x="67.2" y="53.5" width="2.3" height="2.3"/>
<rect x="74.2" y="53.5" width="2.3" height="2.3"/>
<rect x="78.8" y="53.5" width="2.3" height="2.3"/>
<rect x="81.1" y="53.5" width="2.3" height="2.3"/>
<rect x="88" y="53.5" width="2.3" height="2.3"/>
<rect x="9.8" y="55.8" width="2.3" height="2.3"/>
<rect x="19" y="55.8" width="2.3" height="2.3"/>
<rect x="25.9" y="55.8" width="2.3" height="2.3"/>
<rect x="35" y="55.8" width="2.3" height="2.3"/>
<rect x="37.4" y="55.8" width="2.3" height="2.3"/>
<rect x="39.7" y="55.8" width="2.3" height="2.3"/>
<rect x="42" y="55.8" width="2.3" height="2.3"/>
<rect x="44.2" y="55.8" width="2.3" height="2.3"/>
<rect x="48.9" y="55.8" width="2.3" height="2.3"/>
<rect x="51.2" y="55.8" width="2.3" height="2.3"/>
<rect x="53.5" y="55.8" width="2.3" height="2.3"/>
<rect x="55.8" y="55.8" width="2.3" height="2.3"/>
<rect x="60.4" y="55.8" width="2.3" height="2.3"/>
<rect x="62.7" y="55.8" width="2.3" height="2.3"/>
<rect x="69.6" y="55.8" width="2.3" height="2.3"/>
<rect x="71.8" y="55.8" width="2.3" height="2.3"/>
<rect x="74.2" y="55.8" width="2.3" height="2.3"/>
<rect x="76.5" y="55.8" width="2.3" height="2.3"/>
<rect x="78.8" y="55.8" width="2.3" height="2.3"/>
<rect x="88" y="55.8" width="2.3" height="2.3"/>
<rect x="90.2" y="55.8" width="2.3" height="2.3"/>
<rect x="12.1" y="58" width="2.3" height="2.3"/>
<rect x="14.4" y="58" width="2.3" height="2.3"/>
<rect x="21.2" y="58" width="2.3" height="2.3"/>
<rect x="23.6" y="58" width="2.3" height="2.3"/>
<rect x="32.8" y="58" width="2.3" height="2.3"/>
<rect x="35" y="58" width="2.3" height="2.3"/>
<rect x="37.4" y="58" width="2.3" height="2.3"/>
<rect x="48.9" y="58" width="2.3" height="2.3"/>
<rect x="51.2" y="58" width="2.3" height="2.3"/>
<rect x="53.5" y="58" width="2.3" height="2.3"/>
<rect x="55.8" y="58" width="2.3" height="2.3"/>
<rect x="62.7" y="58" width="2.3" height="2.3"/>
<rect x="65" y="58" width="2.3" height="2.3"/>
<rect x="71.8" y="58" width="2.3" height="2.3"/>
<rect x="78.8" y="58" width="2.3" height="2.3"/>
<rect x="83.3" y="58" width="2.3" height="2.3"/>
<rect x="90.2" y="58" width="2.3" height="2.3"/>
<rect x="12.1" y="60.4" width="2.3" height="2.3"/>
<rect x="16.6" y="60.4" width="2.3" height="2.3"/>
<rect x="19" y="60.4" width="2.3" height="2.3"/>
<rect x="28.1" y="60.4" width="2.3" height="2.3"/>
<rect x="42" y="60.4" width="2.3" height="2.3"/>
<rect x="46.5" y="60.4" width="2.3" height="2.3"/>
<rect x="58" y="60.4" width="2.3" height="2.3"/>
<rect x="60.4" y="60.4" width="2.3" height="2.3"/>
<rect x="65" y="60.4" width="2.3" height="2.3"/>
<rect x="69.6" y="60.4" width="2.3" height="2.3"/>
<rect x="76.5" y="60.4" width="2.3" height="2.3"/>
<rect x="83.3" y="60.4" width="2.3" height="2.3"/>
<rect x="85.7" y="60.4" width="2.3" height="2.3"/>
<rect x="9.8" y="62.7" width="2.3" height="2.3"/>
<rect x="14.4" y="62.7" width="2.3" height="2.3"/>
<rect x="21.2" y="62.7" width="2.3" height="2.3"/>
<rect x="30.5" y="62.7" width="2.3" height="2.3"/>
<rect x="35" y="62.7" width="2.3" height="2.3"/>
<rect x="39.7" y="62.7" width="2.3" height="2.3"/>
<rect x="42" y="62.7" width="2.3" height="2.3"/>
<rect x="55.8" y="62.7" width="2.3" height="2.3"/>
<rect x="62.7" y="62.7" width="2.3" height="2.3"/>
<rect x="65" y="62.7" width="2.3" height="2.3"/>
<rect x="69.6" y="62.7" width="2.3" height="2.3"/>
<rect x="71.8" y="62.7" width="2.3" height="2.3"/>
<rect x="74.2" y="62.7" width="2.3" height="2.3"/>
<rect x="78.8" y="62.7" width="2.3" height="2.3"/>
<rect x="83.3" y="62.7" width="2.3" height="2.3"/>
<rect x="88" y="62.7" width="2.3" height="2.3"/>
<rect x="90.2" y="62.7" width="2.3" height="2.3"/>
<rect x="9.8" y="65" width="2.3" height="2.3"/>
<rect x="12.1" y="65" width="2.3" height="2.3"/>
<rect x="19" y="65" width="2.3" height="2.3"/>
<rect x="25.9" y="65" width="2.3" height="2.3"/>
<rect x="32.8" y="65" width="2.3" height="2.3"/>
<rect x="35" y="65" width="2.3" height="2.3"/>
<rect x="39.7" y="65" width="2.3" height="2.3"/>
<rect x="42" y="65" width="2.3" height="2.3"/>
<rect x="44.2" y="65" width="2.3" height="2.3"/>
<rect x="46.5" y="65" width="2.3" height="2.3"/>
<rect x="53.5" y="65" width="2.3" height="2.3"/>
<rect x="69.6" y="65" width="2.3" height="2.3"/>
<rect x="71.8" y="65" width="2.3" height="2.3"/>
<rect x="74.2" y="65" width="2.3" height="2.3"/>
<rect x="78.8" y="65" width="2.3" height="2.3"/>
<rect x="81.1" y="65" width="2.3" height="2.3"/>
<rect x="83.3" y="65" width="2.3" height="2.3"/>
<rect x="90.2" y="65" width="2.3" height="2.3"/>
<rect x="9.8" y="67.2" width="2.3" height="2.3"/>
<rect x="14.4" y="67.2" width="2.3" height="2.3"/>
<rect x="16.6" y="67.2" width="2.3" height="2.3"/>
<rect x="21.2" y="67.2" width="2.3" height="2.3"/>
<rect x="28.1" y="67.2" width="2.3" height="2.3"/>
<rect x="32.8" y="67.2" width="2.3" height="2.3"/>
<rect x="37.4" y="67.2" width="2.3" height="2.3"/>
<rect x="46.5" y="67.2" width="2.3" height="2.3"/>
<rect x="48.9" y="67.2" width="2.3" height="2.3"/>
<rect x="51.2" y="67.2" width="2.3" height="2.3"/>
<rect x="67.2" y="67.2" width="2.3" height="2.3"/>
<rect x="69.6" y="67.2" width="2.3" height="2.3"/>
<rect x="71.8" y="67.2" width="2.3" height="2.3"/>
<rect x="74.2" y="67.2" width="2.3" height="2.3"/>
<rect x="78.8" y="67.2" width="2.3" height="2.3"/>
<rect x="81.1" y="67.2" width="2.3" height="2.3"/>
<rect x="85.7" y="67.2" width="2.3" height="2.3"/>
<rect x="7.5" y="69.6" width="2.3" height="2.3"/>
<rect x="30.5" y="69.6" width="2.3" height="2.3"/>
<rect x="32.8" y="69.6" width="2.3" height="2.3"/>
<rect x="39.7" y="69.6" width="2.3" height="2.3"/>
<rect x="44.2" y="69.6" width="2.3" height="2.3"/>
<rect x="46.5" y="69.6" width="2.3" height="2.3"/>
<rect x="48.9" y="69.6" width="2.3" height="2.3"/>
<rect x="51.2" y="69.6" width="2.3" height="2.3"/>
<rect x="55.8" y="69.6" width="2.3" height="2.3"/>
<rect x="65" y="69.6" width="2.3" height="2.3"/>
<rect x="71.8" y="69.6" width="2.3" height="2.3"/>
<rect x="78.8" y="69.6" width="2.3" height="2.3"/>
<rect x="85.7" y="69.6" width="2.3" height="2.3"/>
<rect x="88" y="69.6" width="2.3" height="2.3"/>
<rect x="90.2" y="69.6" width="2.3" height="2.3"/>
<rect x="14.4" y="71.8" width="2.3" height="2.3"/>
<rect x="16.6" y="71.8" width="2.3" height="2.3"/>
<rect x="21.2" y="71.8" width="2.3" height="2.3"/>
<rect x="23.6" y="71.8" width="2.3" height="2.3"/>
<rect x="28.1" y="71.8" width="2.3" height="2.3"/>
<rect x="35" y="71.8" width="2.3" height="2.3"/>
<rect x="39.7" y="71.8" width="2.3" height="2.3"/>
<rect x="44.2" y="71.8" width="2.3" height="2.3"/>
<rect x="48.9" y="71.8" width="2.3" height="2.3"/>
<rect x="53.5" y="71.8" width="2.3" height="2.3"/>
<rect x="60.4" y="71.8" width="2.3" height="2.3"/>
<rect x="62.7" y="71.8" width="2.3" height="2.3"/>
<rect x="65" y="71.8" width="2.3" height="2.3"/>
<rect x="71.8" y="71.8" width="2.3" height="2.3"/>
<rect x="74.2" y="71.8" width="2.3" height="2.3"/>
<rect x="76.5" y="71.8" width="2.3" height="2.3"/>
<rect x="78.8" y="71.8" width="2.3" height="2.3"/>
<rect x="81.1" y="71.8" width="2.3" height="2.3"/>
<rect x="83.3" y="71.8" width="2.3" height="2.3"/>
<rect x="85.7" y="71.8" width="2.3" height="2.3"/>
<rect x="25.9" y="74.2" width="2.3" height="2.3"/>
<rect x="28.1" y="74.2" width="2.3" height="2.3"/>
<rect x="30.5" y="74.2" width="2.3" height="2.3"/>
<rect x="39.7" y="74.2" width="2.3" height="2.3"/>
<rect x="48.9" y="74.2" width="2.3" height="2.3"/>
<rect x="51.2" y="74.2" width="2.3" height="2.3"/>
<rect x="53.5" y="74.2" width="2.3" height="2.3"/>
<rect x="62.7" y="74.2" width="2.3" height="2.3"/>
<rect x="65" y="74.2" width="2.3" height="2.3"/>
<rect x="67.2" y="74.2" width="2.3" height="2.3"/>
<rect x="71.8" y="74.2" width="2.3" height="2.3"/>
<rect x="81.1" y="74.2" width="2.3" height="2.3"/>
<rect x="85.7" y="74.2" width="2.3" height="2.3"/>
<rect x="28.1" y="76.5" width="2.3" height="2.3"/>
<rect x="37.4" y="76.5" width="2.3" height="2.3"/>
<rect x="39.7" y="76.5" width="2.3" height="2.3"/>
<rect x="42" y="76.5" width="2.3" height="2.3"/>
<rect x="46.5" y="76.5" width="2.3" height="2.3"/>
<rect x="48.9" y="76.5" width="2.3" height="2.3"/>
<rect x="53.5" y="76.5" width="2.3" height="2.3"/>
<rect x="58" y="76.5" width="2.3" height="2.3"/>
<rect x="65" y="76.5" width="2.3" height="2.3"/>
<rect x="67.2" y="76.5" width="2.3" height="2.3"/>
<rect x="71.8" y="76.5" width="2.3" height="2.3"/>
<rect x="76.5" y="76.5" width="2.3" height="2.3"/>
<rect x="81.1" y="76.5" width="2.3" height="2.3"/>
<rect x="85.7" y="76.5" width="2.3" height="2.3"/>
<rect x="88" y="76.5" width="2.3" height="2.3"/>
<rect x="90.2" y="76.5" width="2.3" height="2.3"/>
<rect x="30.5" y="78.8" width="2.3" height="2.3"/>
<rect x="32.8" y="78.8" width="2.3" height="2.3"/>
<rect x="37.4" y="78.8" width="2.3" height="2.3"/>
<rect x="39.7" y="78.8" width="2.3" height="2.3"/>
<rect x="42" y="78.8" width="2.3" height="2.3"/>
<rect x="44.2" y="78.8" width="2.3" height="2.3"/>
<rect x="46.5" y="78.8" width="2.3" height="2.3"/>
<rect x="51.2" y="78.8" width="2.3" height="2.3"/>
<rect x="60.4" y="78.8" width="2.3" height="2.3"/>
<rect x="62.7" y="78.8" width="2.3" height="2.3"/>
<rect x="65" y="78.8" width="2.3" height="2.3"/>
<rect x="67.2" y="78.8" width="2.3" height="2.3"/>
<rect x="71.8" y="78.8" width="2.3" height="2.3"/>
<rect x="81.1" y="78.8" width="2.3" height="2.3"/>
<rect x="85.7" y="78.8" width="2.3" height="2.3"/>
<rect x="88" y="78.8" width="2.3" height="2.3"/>
<rect x="90.2" y="78.8" width="2.3" height="2.3"/>
<rect x="28.1" y="81.1" width="2.3" height="2.3"/>
<rect x="37.4" y="81.1" width="2.3" height="2.3"/>
<rect x="39.7" y="81.1" width="2.3" height="2.3"/>
<rect x="44.2" y="81.1" width="2.3" height="2.3"/>
<rect x="51.2" y="81.1" width="2.3" height="2.3"/>
<rect x="53.5" y="81.1" width="2.3" height="2.3"/>
<rect x="55.8" y="81.1" width="2.3" height="2.3"/>
<rect x="58" y="81.1" width="2.3" height="2.3"/>
<rect x="62.7" y="81.1" width="2.3" height="2.3"/>
<rect x="65" y="81.1" width="2.3" height="2.3"/>
<rect x="67.2" y="81.1" width="2.3" height="2.3"/>
<rect x="71.8" y="81.1" width="2.3" height="2.3"/>
<rect x="74.2" y="81.1" width="2.3" height="2.3"/>
<rect x="76.5" y="81.1" width="2.3" height="2.3"/>
<rect x="78.8" y="81.1" width="2.3" height="2.3"/>
<rect x="81.1" y="81.1" width="2.3" height="2.3"/>
<rect x="90.2" y="81.1" width="2.3" height="2.3"/>
<rect x="25.9" y="83.3" width="2.3" height="2.3"/>
<rect x="28.1" y="83.3" width="2.3" height="2.3"/>
<rect x="30.5" y="83.3" width="2.3" height="2.3"/>
<rect x="42" y="83.3" width="2.3" height="2.3"/>
<rect x="44.2" y="83.3" width="2.3" height="2.3"/>
<rect x="48.9" y="83.3" width="2.3" height="2.3"/>
<rect x="53.5" y="83.3" width="2.3" height="2.3"/>
<rect x="55.8" y="83.3" width="2.3" height="2.3"/>
<rect x="60.4" y="83.3" width="2.3" height="2.3"/>
<rect x="62.7" y="83.3" width="2.3" height="2.3"/>
<rect x="67.2" y="83.3" width="2.3" height="2.3"/>
<rect x="69.6" y="83.3" width="2.3" height="2.3"/>
<rect x="71.8" y="83.3" width="2.3" height="2.3"/>
<rect x="76.5" y="83.3" width="2.3" height="2.3"/>
<rect x="88" y="83.3" width="2.3" height="2.3"/>
<rect x="90.2" y="83.3" width="2.3" height="2.3"/>
<rect x="25.9" y="85.7" width="2.3" height="2.3"/>
<rect x="28.1" y="85.7" width="2.3" height="2.3"/>
<rect x="39.7" y="85.7" width="2.3" height="2.3"/>
<rect x="44.2" y="85.7" width="2.3" height="2.3"/>
<rect x="46.5" y="85.7" width="2.3" height="2.3"/>
<rect x="48.9" y="85.7" width="2.3" height="2.3"/>
<rect x="55.8" y="85.7" width="2.3" height="2.3"/>
<rect x="58" y="85.7" width="2.3" height="2.3"/>
<rect x="60.4" y="85.7" width="2.3" height="2.3"/>
<rect x="62.7" y="85.7" width="2.3" height="2.3"/>
<rect x="65" y="85.7" width="2.3" height="2.3"/>
<rect x="67.2" y="85.7" width="2.3" height="2.3"/>
<rect x="69.6" y="85.7" width="2.3" height="2.3"/>
<rect x="74.2" y="85.7" width="2.3" height="2.3"/>
<rect x="76.5" y="85.7" width="2.3" height="2.3"/>
<rect x="78.8" y="85.7" width="2.3" height="2.3"/>
<rect x="81.1" y="85.7" width="2.3" height="2.3"/>
<rect x="83.3" y="85.7" width="2.3" height="2.3"/>
<rect x="85.7" y="85.7" width="2.3" height="2.3"/>
<rect x="88" y="85.7" width="2.3" height="2.3"/>
<rect x="25.9" y="88" width="2.3" height="2.3"/>
<rect x="28.1" y="88" width="2.3" height="2.3"/>
<rect x="32.8" y="88" width="2.3" height="2.3"/>
<rect x="35" y="88" width="2.3" height="2.3"/>
<rect x="37.4" y="88" width="2.3" height="2.3"/>
<rect x="39.7" y="88" width="2.3" height="2.3"/>
<rect x="42" y="88" width="2.3" height="2.3"/>
<rect x="48.9" y="88" width="2.3" height="2.3"/>
<rect x="53.5" y="88" width="2.3" height="2.3"/>
<rect x="55.8" y="88" width="2.3" height="2.3"/>
<rect x="58" y="88" width="2.3" height="2.3"/>
<rect x="62.7" y="88" width="2.3" height="2.3"/>
<rect x="67.2" y="88" width="2.3" height="2.3"/>
<rect x="69.6" y="88" width="2.3" height="2.3"/>
<rect x="71.8" y="88" width="2.3" height="2.3"/>
<rect x="74.2" y="88" width="2.3" height="2.3"/>
<rect x="81.1" y="88" width="2.3" height="2.3"/>
<rect x="85.7" y="88" width="2.3" height="2.3"/>
<rect x="88" y="88" width="2.3" height="2.3"/>
<rect x="90.2" y="88" width="2.3" height="2.3"/>
<rect x="25.9" y="90.2" width="2.3" height="2.3"/>
<rect x="32.8" y="90.2" width="2.3" height="2.3"/>
<rect x="42" y="90.2" width="2.3" height="2.3"/>
<rect x="44.2" y="90.2" width="2.3" height="2.3"/>
<rect x="46.5" y="90.2" width="2.3" height="2.3"/>
<rect x="48.9" y="90.2" width="2.3" height="2.3"/>
<rect x="53.5" y="90.2" width="2.3" height="2.3"/>
<rect x="58" y="90.2" width="2.3" height="2.3"/>
<rect x="65" y="90.2" width="2.3" height="2.3"/>
<rect x="69.6" y="90.2" width="2.3" height="2.3"/>
<rect x="71.8" y="90.2" width="2.3" height="2.3"/>
<rect x="74.2" y="90.2" width="2.3" height="2.3"/>
<rect x="78.8" y="90.2" width="2.3" height="2.3"/>
<rect x="85.7" y="90.2" width="2.3" height="2.3"/>
<rect x="88" y="90.2" width="2.3" height="2.3"/>
<rect x="90.2" y="90.2" width="2.3" height="2.3"/>
<path d="M7.9,7.4c-0.3,0-0.5,0.2-0.5,0.5v1.8v2.3v2.3v2.3V19v2.3v1.8c0,0.3,0.2,0.5,0.5,0.5h15.1c0.3,0,0.5-0.2,0.5-0.5v-1.8V19
	v-2.3v-2.3v-2.3V9.8V7.9c0-0.3-0.2-0.5-0.5-0.5C23.1,7.4,7.9,7.4,7.9,7.4z M21.2,12.1v2.3v2.3V19v2c0,0.2-0.1,0.3-0.3,0.3H10
	c-0.2,0-0.3-0.1-0.3-0.3v-2v-2.3v-2.3v-2.3v-2c0-0.2,0.1-0.3,0.3-0.3H21c0.2,0,0.3,0.1,0.3,0.3V12.1z"/>
<path d="M19,16.6v-2.3v-1.8c0-0.3-0.2-0.5-0.5-0.5h-5.9c-0.3,0-0.5,0.2-0.5,0.5v1.8v2.3v1.8c0,0.3,0.2,0.5,0.5,0.5h5.9
	c0.3,0,0.5-0.2,0.5-0.5V16.6z"/>
<path d="M76.9,7.4c-0.3,0-0.5,0.2-0.5,0.5v1.8v2.3v2.3v2.3V19v2.3v1.8c0,0.3,0.2,0.5,0.5,0.5h15.1c0.3,0,0.5-0.2,0.5-0.5v-1.8V19
	v-2.3v-2.3v-2.3V9.8V7.9c0-0.3-0.2-0.5-0.5-0.5C92.1,7.4,76.9,7.4,76.9,7.4z M90.2,12.1v2.3v2.3V19v2c0,0.2-0.1,0.3-0.3,0.3H79
	c-0.2,0-0.3-0.1-0.3-0.3v-2v-2.3v-2.3v-2.3v-2c0-0.2,0.1-0.3,0.3-0.3H90c0.2,0,0.3,0.1,0.3,0.3V12.1z"/>
<path d="M88,16.6v-2.3v-1.8c0-0.3-0.2-0.5-0.5-0.5h-5.9c-0.3,0-0.5,0.2-0.5,0.5v1.8v2.3v1.8c0,0.3,0.2,0.5,0.5,0.5h5.9
	c0.3,0,0.5-0.2,0.5-0.5V16.6z"/>
<path d="M7.9,76.4c-0.3,0-0.5,0.2-0.5,0.5v1.8v2.3v2.3v2.3V88v2.3v1.8c0,0.3,0.2,0.5,0.5,0.5h15.1c0.3,0,0.5-0.2,0.5-0.5v-1.8V88
	v-2.3v-2.3v-2.3v-2.3v-1.8c0-0.3-0.2-0.5-0.5-0.5C23.1,76.4,7.9,76.4,7.9,76.4z M21.2,81.1v2.3v2.3V88v2c0,0.2-0.1,0.3-0.3,0.3H10
	c-0.2,0-0.3-0.1-0.3-0.3v-2v-2.3v-2.3v-2.3v-2c0-0.2,0.1-0.3,0.3-0.3H21c0.2,0,0.3,0.1,0.3,0.3V81.1z"/>
<path d="M19,85.7v-2.3v-1.8c0-0.3-0.2-0.5-0.5-0.5h-5.9c-0.3,0-0.5,0.2-0.5,0.5v1.8v2.3v1.8c0,0.3,0.2,0.5,0.5,0.5h5.9
	c0.3,0,0.5-0.2,0.5-0.5V85.7z"/>
</svg>
