<?xml version="1.0" encoding="UTF-8"?>
<svg id="Layer_1" data-name="Layer 1" xmlns="http://www.w3.org/2000/svg" xmlns:xlink="http://www.w3.org/1999/xlink" viewBox="0 0 999.02 999.02">
  <defs>
    <linearGradient id="linear-gradient" x1="-601.86" y1="439.03" x2="-535.6" y2="344.4" gradientTransform="translate(2059.08 -574.65) scale(2.74)" gradientUnits="userSpaceOnUse">
      <stop offset="0" stop-color="#ffb900"/>
      <stop offset="1" stop-color="#9100eb"/>
    </linearGradient>
  </defs>
  <rect x="219.3" width="24.37" height="24.37"/>
  <rect x="268.03" width="24.37" height="24.37"/>
  <rect x="341.13" width="24.37" height="24.37"/>
  <rect x="389.86" width="24.37" height="24.37"/>
  <rect x="462.96" width="24.37" height="24.37"/>
  <rect x="536.06" width="24.37" height="24.37"/>
  <rect x="682.26" width="24.37" height="24.37"/>
  <rect x="706.63" width="24.37" height="24.37"/>
  <rect x="730.99" width="24.37" height="24.37"/>
  <rect x="755.36" width="24.37" height="24.37"/>
  <rect x="779.73" width="24.37" height="24.37"/>
  <rect x="243.66" y="24.37" width="24.37" height="24.37"/>
  <rect x="292.4" y="24.37" width="24.37" height="24.37"/>
  <rect x="316.76" y="24.37" width="24.37" height="24.37"/>
  <rect x="438.6" y="24.37" width="24.37" height="24.37"/>
  <rect x="462.96" y="24.37" width="24.37" height="24.37"/>
  <rect x="511.7" y="24.37" width="24.37" height="24.37"/>
  <rect x="536.06" y="24.37" width="24.37" height="24.37"/>
  <rect x="584.79" y="24.37" width="24.37" height="24.37"/>
  <rect x="633.53" y="24.37" width="24.37" height="24.37"/>
  <rect x="682.26" y="24.37" width="24.37" height="24.37"/>
  <rect x="730.99" y="24.37" width="24.37" height="24.37"/>
  <rect x="219.3" y="48.73" width="24.37" height="24.37"/>
  <rect x="268.03" y="48.73" width="24.37" height="24.37"/>
  <rect x="316.76" y="48.73" width="24.37" height="24.37"/>
  <rect x="341.13" y="48.73" width="24.37" height="24.37"/>
  <rect x="414.23" y="48.73" width="24.37" height="24.37"/>
  <rect x="462.96" y="48.73" width="24.37" height="24.37"/>
  <rect x="487.33" y="48.73" width="24.37" height="24.37"/>
  <rect x="536.06" y="48.73" width="24.37" height="24.37"/>
  <rect x="609.16" y="48.73" width="24.37" height="24.37"/>
  <rect x="633.53" y="48.73" width="24.37" height="24.37"/>
  <rect x="657.89" y="48.73" width="24.37" height="24.37"/>
  <rect x="682.26" y="48.73" width="24.37" height="24.37"/>
  <rect x="243.66" y="73.1" width="24.37" height="24.37"/>
  <rect x="316.76" y="73.1" width="24.37" height="24.37"/>
  <rect x="341.13" y="73.1" width="24.37" height="24.37"/>
  <rect x="365.5" y="73.1" width="24.37" height="24.37"/>
  <rect x="414.23" y="73.1" width="24.37" height="24.37"/>
  <rect x="487.33" y="73.1" width="24.37" height="24.37"/>
  <rect x="511.7" y="73.1" width="24.37" height="24.37"/>
  <rect x="536.06" y="73.1" width="24.37" height="24.37"/>
  <rect x="584.79" y="73.1" width="24.37" height="24.37"/>
  <rect x="657.89" y="73.1" width="24.37" height="24.37"/>
  <rect x="706.63" y="73.1" width="24.37" height="24.37"/>
  <rect x="194.93" y="97.47" width="24.37" height="24.37"/>
  <rect x="243.66" y="97.47" width="24.37" height="24.37"/>
  <rect x="292.4" y="97.47" width="24.37" height="24.37"/>
  <rect x="365.5" y="97.47" width="24.37" height="24.37"/>
  <rect x="438.6" y="97.47" width="24.37" height="24.37"/>
  <rect x="462.96" y="97.47" width="24.37" height="24.37"/>
  <rect x="487.33" y="97.47" width="24.37" height="24.37"/>
  <rect x="511.7" y="97.47" width="24.37" height="24.37"/>
  <rect x="560.43" y="97.47" width="24.37" height="24.37"/>
  <rect x="609.16" y="97.47" width="24.37" height="24.37"/>
  <rect x="657.89" y="97.47" width="24.37" height="24.37"/>
  <rect x="682.26" y="97.47" width="24.37" height="24.37"/>
  <rect x="706.63" y="97.47" width="24.37" height="24.37"/>
  <rect x="730.99" y="97.47" width="24.37" height="24.37"/>
  <rect x="755.36" y="97.47" width="24.37" height="24.37"/>
  <rect x="219.3" y="121.83" width="24.37" height="24.37"/>
  <rect x="268.03" y="121.83" width="24.37" height="24.37"/>
  <rect x="316.76" y="121.83" width="24.37" height="24.37"/>
  <rect x="341.13" y="121.83" width="24.37" height="24.37"/>
  <rect x="365.5" y="121.83" width="24.37" height="24.37"/>
  <rect x="462.96" y="121.83" width="24.37" height="24.37"/>
  <rect x="487.33" y="121.83" width="24.37" height="24.37"/>
  <rect x="560.43" y="121.83" width="24.37" height="24.37"/>
  <rect x="584.79" y="121.83" width="24.37" height="24.37"/>
  <rect x="609.16" y="121.83" width="24.37" height="24.37"/>
  <rect x="633.53" y="121.83" width="24.37" height="24.37"/>
  <rect x="706.63" y="121.83" width="24.37" height="24.37"/>
  <rect x="755.36" y="121.83" width="24.37" height="24.37"/>
  <rect x="194.93" y="146.2" width="24.37" height="24.37"/>
  <rect x="243.66" y="146.2" width="24.37" height="24.37"/>
  <rect x="292.4" y="146.2" width="24.37" height="24.37"/>
  <rect x="341.13" y="146.2" width="24.37" height="24.37"/>
  <rect x="389.86" y="146.2" width="24.37" height="24.37"/>
  <rect x="438.6" y="146.2" width="24.37" height="24.37"/>
  <rect x="487.33" y="146.2" width="24.37" height="24.37"/>
  <rect x="536.06" y="146.2" width="24.37" height="24.37"/>
  <rect x="584.79" y="146.2" width="24.37" height="24.37"/>
  <rect x="633.53" y="146.2" width="24.37" height="24.37"/>
  <rect x="682.26" y="146.2" width="24.37" height="24.37"/>
  <rect x="730.99" y="146.2" width="24.37" height="24.37"/>
  <rect x="779.73" y="146.2" width="24.37" height="24.37"/>
  <rect x="194.93" y="170.57" width="24.37" height="24.37"/>
  <rect x="219.3" y="170.57" width="24.37" height="24.37"/>
  <rect x="292.4" y="170.57" width="24.37" height="24.37"/>
  <rect x="316.76" y="170.57" width="24.37" height="24.37"/>
  <rect x="341.13" y="170.57" width="24.37" height="24.37"/>
  <rect x="365.5" y="170.57" width="24.37" height="24.37"/>
  <rect x="389.86" y="170.57" width="24.37" height="24.37"/>
  <rect x="414.23" y="170.57" width="24.37" height="24.37"/>
  <rect x="438.6" y="170.57" width="24.37" height="24.37"/>
  <rect x="462.96" y="170.57" width="24.37" height="24.37"/>
  <rect x="487.33" y="170.57" width="24.37" height="24.37"/>
  <rect x="511.7" y="170.57" width="24.37" height="24.37"/>
  <rect x="536.06" y="170.57" width="24.37" height="24.37"/>
  <rect x="560.43" y="170.57" width="24.37" height="24.37"/>
  <rect x="633.53" y="170.57" width="24.37" height="24.37"/>
  <rect x="706.63" y="170.57" width="24.37" height="24.37"/>
  <rect x="48.73" y="194.93" width="24.37" height="24.37"/>
  <rect x="73.1" y="194.93" width="24.37" height="24.37"/>
  <rect x="146.2" y="194.93" width="24.37" height="24.37"/>
  <rect x="170.57" y="194.93" width="24.37" height="24.37"/>
  <rect x="194.93" y="194.93" width="24.37" height="24.37"/>
  <rect x="219.3" y="194.93" width="24.37" height="24.37"/>
  <rect x="243.66" y="194.93" width="24.37" height="24.37"/>
  <rect x="292.4" y="194.93" width="24.37" height="24.37"/>
  <rect x="341.13" y="194.93" width="24.37" height="24.37"/>
  <rect x="462.96" y="194.93" width="24.37" height="24.37"/>
  <rect x="511.7" y="194.93" width="24.37" height="24.37"/>
  <rect x="584.79" y="194.93" width="24.37" height="24.37"/>
  <rect x="657.89" y="194.93" width="24.37" height="24.37"/>
  <rect x="682.26" y="194.93" width="24.37" height="24.37"/>
  <rect x="706.63" y="194.93" width="24.37" height="24.37"/>
  <rect x="730.99" y="194.93" width="24.37" height="24.37"/>
  <rect x="755.36" y="194.93" width="24.37" height="24.37"/>
  <rect x="779.73" y="194.93" width="24.37" height="24.37"/>
  <rect x="804.09" y="194.93" width="24.37" height="24.37"/>
  <rect x="828.46" y="194.93" width="24.37" height="24.37"/>
  <rect x="877.19" y="194.93" width="24.37" height="24.37"/>
  <rect x="24.37" y="219.3" width="24.37" height="24.37"/>
  <rect x="73.1" y="219.3" width="24.37" height="24.37"/>
  <rect x="97.47" y="219.3" width="24.37" height="24.37"/>
  <rect x="121.83" y="219.3" width="24.37" height="24.37"/>
  <rect x="170.57" y="219.3" width="24.37" height="24.37"/>
  <rect x="243.66" y="219.3" width="24.37" height="24.37"/>
  <rect x="316.76" y="219.3" width="24.37" height="24.37"/>
  <rect x="414.23" y="219.3" width="24.37" height="24.37"/>
  <rect x="462.96" y="219.3" width="24.37" height="24.37"/>
  <rect x="511.7" y="219.3" width="24.37" height="24.37"/>
  <rect x="560.43" y="219.3" width="24.37" height="24.37"/>
  <rect x="584.79" y="219.3" width="24.37" height="24.37"/>
  <rect x="633.53" y="219.3" width="24.37" height="24.37"/>
  <rect x="706.63" y="219.3" width="24.37" height="24.37"/>
  <rect x="730.99" y="219.3" width="24.37" height="24.37"/>
  <rect x="755.36" y="219.3" width="24.37" height="24.37"/>
  <rect x="779.73" y="219.3" width="24.37" height="24.37"/>
  <rect x="828.46" y="219.3" width="24.37" height="24.37"/>
  <rect x="852.83" y="219.3" width="24.37" height="24.37"/>
  <rect x="877.19" y="219.3" width="24.37" height="24.37"/>
  <rect x="925.92" y="219.3" width="24.37" height="24.37"/>
  <rect x="974.66" y="219.3" width="24.37" height="24.37"/>
  <rect x="24.37" y="243.66" width="24.37" height="24.37"/>
  <rect x="48.73" y="243.66" width="24.37" height="24.37"/>
  <rect x="73.1" y="243.66" width="24.37" height="24.37"/>
  <rect x="97.47" y="243.66" width="24.37" height="24.37"/>
  <rect x="146.2" y="243.66" width="24.37" height="24.37"/>
  <rect x="194.93" y="243.66" width="24.37" height="24.37"/>
  <rect x="219.3" y="243.66" width="24.37" height="24.37"/>
  <rect x="243.66" y="243.66" width="24.37" height="24.37"/>
  <rect x="292.4" y="243.66" width="24.37" height="24.37"/>
  <rect x="316.76" y="243.66" width="24.37" height="24.37"/>
  <rect x="341.13" y="243.66" width="24.37" height="24.37"/>
  <rect x="389.86" y="243.66" width="24.37" height="24.37"/>
  <rect x="414.23" y="243.66" width="24.37" height="24.37"/>
  <rect x="511.7" y="243.66" width="24.37" height="24.37"/>
  <rect x="560.43" y="243.66" width="24.37" height="24.37"/>
  <rect x="584.79" y="243.66" width="24.37" height="24.37"/>
  <rect x="609.16" y="243.66" width="24.37" height="24.37"/>
  <rect x="633.53" y="243.66" width="24.37" height="24.37"/>
  <rect x="706.63" y="243.66" width="24.37" height="24.37"/>
  <rect x="804.09" y="243.66" width="24.37" height="24.37"/>
  <rect x="828.46" y="243.66" width="24.37" height="24.37"/>
  <rect x="877.19" y="243.66" width="24.37" height="24.37"/>
  <rect x="925.92" y="243.66" width="24.37" height="24.37"/>
  <rect x="950.29" y="243.66" width="24.37" height="24.37"/>
  <rect x="48.73" y="268.03" width="24.37" height="24.37"/>
  <rect x="170.57" y="268.03" width="24.37" height="24.37"/>
  <rect x="292.4" y="268.03" width="24.37" height="24.37"/>
  <rect x="316.76" y="268.03" width="24.37" height="24.37"/>
  <rect x="365.5" y="268.03" width="24.37" height="24.37"/>
  <rect x="389.86" y="268.03" width="24.37" height="24.37"/>
  <rect x="487.33" y="268.03" width="24.37" height="24.37"/>
  <rect x="536.06" y="268.03" width="24.37" height="24.37"/>
  <rect x="609.16" y="268.03" width="24.37" height="24.37"/>
  <rect x="633.53" y="268.03" width="24.37" height="24.37"/>
  <rect x="779.73" y="268.03" width="24.37" height="24.37"/>
  <rect x="804.09" y="268.03" width="24.37" height="24.37"/>
  <rect x="950.29" y="268.03" width="24.37" height="24.37"/>
  <rect x="974.66" y="268.03" width="24.37" height="24.37"/>
  <rect x="48.73" y="292.4" width="24.37" height="24.37"/>
  <rect x="73.1" y="292.4" width="24.37" height="24.37"/>
  <rect x="97.47" y="292.4" width="24.37" height="24.37"/>
  <rect x="121.83" y="292.4" width="24.37" height="24.37"/>
  <rect x="146.2" y="292.4" width="24.37" height="24.37"/>
  <rect x="194.93" y="292.4" width="24.37" height="24.37"/>
  <rect x="243.66" y="292.4" width="24.37" height="24.37"/>
  <rect x="268.03" y="292.4" width="24.37" height="24.37"/>
  <rect x="316.76" y="292.4" width="24.37" height="24.37"/>
  <rect x="389.86" y="292.4" width="24.37" height="24.37"/>
  <rect x="438.6" y="292.4" width="24.37" height="24.37"/>
  <rect x="560.43" y="292.4" width="24.37" height="24.37"/>
  <rect x="657.89" y="292.4" width="24.37" height="24.37"/>
  <rect x="706.63" y="292.4" width="24.37" height="24.37"/>
  <rect x="755.36" y="292.4" width="24.37" height="24.37"/>
  <rect x="901.56" y="292.4" width="24.37" height="24.37"/>
  <rect x="925.92" y="292.4" width="24.37" height="24.37"/>
  <rect x="950.29" y="292.4" width="24.37" height="24.37"/>
  <rect y="316.76" width="24.37" height="24.37"/>
  <rect x="24.37" y="316.76" width="24.37" height="24.37"/>
  <rect x="48.73" y="316.76" width="24.37" height="24.37"/>
  <rect x="73.1" y="316.76" width="24.37" height="24.37"/>
  <rect x="97.47" y="316.76" width="24.37" height="24.37"/>
  <rect x="121.83" y="316.76" width="24.37" height="24.37"/>
  <rect x="219.3" y="316.76" width="24.37" height="24.37"/>
  <rect x="316.76" y="316.76" width="24.37" height="24.37"/>
  <rect x="414.23" y="316.76" width="24.37" height="24.37"/>
  <rect x="438.6" y="316.76" width="24.37" height="24.37"/>
  <rect x="462.96" y="316.76" width="24.37" height="24.37"/>
  <rect x="560.43" y="316.76" width="24.37" height="24.37"/>
  <rect x="584.79" y="316.76" width="24.37" height="24.37"/>
  <rect x="609.16" y="316.76" width="24.37" height="24.37"/>
  <rect x="682.26" y="316.76" width="24.37" height="24.37"/>
  <rect x="730.99" y="316.76" width="24.37" height="24.37"/>
  <rect x="755.36" y="316.76" width="24.37" height="24.37"/>
  <rect x="804.09" y="316.76" width="24.37" height="24.37"/>
  <rect x="828.46" y="316.76" width="24.37" height="24.37"/>
  <rect x="852.83" y="316.76" width="24.37" height="24.37"/>
  <rect x="925.92" y="316.76" width="24.37" height="24.37"/>
  <rect x="950.29" y="316.76" width="24.37" height="24.37"/>
  <rect x="974.66" y="316.76" width="24.37" height="24.37"/>
  <rect y="341.13" width="24.37" height="24.37"/>
  <rect x="24.37" y="341.13" width="24.37" height="24.37"/>
  <rect x="48.73" y="341.13" width="24.37" height="24.37"/>
  <rect x="97.47" y="341.13" width="24.37" height="24.37"/>
  <rect x="146.2" y="341.13" width="24.37" height="24.37"/>
  <rect x="194.93" y="341.13" width="24.37" height="24.37"/>
  <rect x="219.3" y="341.13" width="24.37" height="24.37"/>
  <rect x="243.66" y="341.13" width="24.37" height="24.37"/>
  <rect x="268.03" y="341.13" width="24.37" height="24.37"/>
  <rect x="414.23" y="341.13" width="24.37" height="24.37"/>
  <rect x="462.96" y="341.13" width="24.37" height="24.37"/>
  <rect x="487.33" y="341.13" width="24.37" height="24.37"/>
  <rect x="511.7" y="341.13" width="24.37" height="24.37"/>
  <rect x="560.43" y="341.13" width="24.37" height="24.37"/>
  <rect x="584.79" y="341.13" width="24.37" height="24.37"/>
  <rect x="609.16" y="341.13" width="24.37" height="24.37"/>
  <rect x="657.89" y="341.13" width="24.37" height="24.37"/>
  <rect x="682.26" y="341.13" width="24.37" height="24.37"/>
  <rect x="706.63" y="341.13" width="24.37" height="24.37"/>
  <rect x="730.99" y="341.13" width="24.37" height="24.37"/>
  <rect x="755.36" y="341.13" width="24.37" height="24.37"/>
  <rect x="779.73" y="341.13" width="24.37" height="24.37"/>
  <rect x="828.46" y="341.13" width="24.37" height="24.37"/>
  <rect x="852.83" y="341.13" width="24.37" height="24.37"/>
  <rect x="877.19" y="341.13" width="24.37" height="24.37"/>
  <rect x="925.92" y="341.13" width="24.37" height="24.37"/>
  <rect x="950.29" y="341.13" width="24.37" height="24.37"/>
  <rect x="974.66" y="341.13" width="24.37" height="24.37"/>
  <rect x="48.73" y="365.5" width="24.37" height="24.37"/>
  <rect x="73.1" y="365.5" width="24.37" height="24.37"/>
  <rect x="97.47" y="365.5" width="24.37" height="24.37"/>
  <rect x="121.83" y="365.5" width="24.37" height="24.37"/>
  <rect x="219.3" y="365.5" width="24.37" height="24.37"/>
  <rect x="268.03" y="365.5" width="24.37" height="24.37"/>
  <rect x="292.4" y="365.5" width="24.37" height="24.37"/>
  <rect x="341.13" y="365.5" width="24.37" height="24.37"/>
  <rect x="365.5" y="365.5" width="24.37" height="24.37"/>
  <rect x="389.86" y="365.5" width="24.37" height="24.37"/>
  <rect x="438.6" y="365.5" width="24.37" height="24.37"/>
  <rect x="536.06" y="365.5" width="24.37" height="24.37"/>
  <rect x="560.43" y="365.5" width="24.37" height="24.37"/>
  <rect x="633.53" y="365.5" width="24.37" height="24.37"/>
  <rect x="682.26" y="365.5" width="24.37" height="24.37"/>
  <rect x="828.46" y="365.5" width="24.37" height="24.37"/>
  <rect x="877.19" y="365.5" width="24.37" height="24.37"/>
  <rect x="901.56" y="365.5" width="24.37" height="24.37"/>
  <rect x="974.66" y="365.5" width="24.37" height="24.37"/>
  <rect y="389.86" width="24.37" height="24.37"/>
  <rect x="73.1" y="389.86" width="24.37" height="24.37"/>
  <rect x="146.2" y="389.86" width="24.37" height="24.37"/>
  <rect x="170.57" y="389.86" width="24.37" height="24.37"/>
  <rect x="292.4" y="389.86" width="24.37" height="24.37"/>
  <rect x="341.13" y="389.86" width="24.37" height="24.37"/>
  <rect x="414.23" y="389.86" width="24.37" height="24.37"/>
  <rect x="462.96" y="389.86" width="24.37" height="24.37"/>
  <rect x="487.33" y="389.86" width="24.37" height="24.37"/>
  <rect x="511.7" y="389.86" width="24.37" height="24.37"/>
  <rect x="584.79" y="389.86" width="24.37" height="24.37"/>
  <rect x="609.16" y="389.86" width="24.37" height="24.37"/>
  <rect x="633.53" y="389.86" width="24.37" height="24.37"/>
  <rect x="657.89" y="389.86" width="24.37" height="24.37"/>
  <rect x="682.26" y="389.86" width="24.37" height="24.37"/>
  <rect x="730.99" y="389.86" width="24.37" height="24.37"/>
  <rect x="755.36" y="389.86" width="24.37" height="24.37"/>
  <rect x="779.73" y="389.86" width="24.37" height="24.37"/>
  <rect x="877.19" y="389.86" width="24.37" height="24.37"/>
  <rect x="950.29" y="389.86" width="24.37" height="24.37"/>
  <rect x="974.66" y="389.86" width="24.37" height="24.37"/>
  <rect x="24.37" y="414.23" width="24.37" height="24.37"/>
  <rect x="121.83" y="414.23" width="24.37" height="24.37"/>
  <rect x="170.57" y="414.23" width="24.37" height="24.37"/>
  <rect x="194.93" y="414.23" width="24.37" height="24.37"/>
  <rect x="243.66" y="414.23" width="24.37" height="24.37"/>
  <rect x="292.4" y="414.23" width="24.37" height="24.37"/>
  <rect x="316.76" y="414.23" width="24.37" height="24.37"/>
  <rect x="341.13" y="414.23" width="24.37" height="24.37"/>
  <rect x="365.5" y="414.23" width="24.37" height="24.37"/>
  <rect x="414.23" y="414.23" width="24.37" height="24.37"/>
  <rect x="462.96" y="414.23" width="24.37" height="24.37"/>
  <rect x="536.06" y="414.23" width="24.37" height="24.37"/>
  <rect x="560.43" y="414.23" width="24.37" height="24.37"/>
  <rect x="584.79" y="414.23" width="24.37" height="24.37"/>
  <rect x="657.89" y="414.23" width="24.37" height="24.37"/>
  <rect x="779.73" y="414.23" width="24.37" height="24.37"/>
  <rect x="804.09" y="414.23" width="24.37" height="24.37"/>
  <rect x="852.83" y="414.23" width="24.37" height="24.37"/>
  <rect x="901.56" y="414.23" width="24.37" height="24.37"/>
  <rect x="48.73" y="438.6" width="24.37" height="24.37"/>
  <rect x="97.47" y="438.6" width="24.37" height="24.37"/>
  <rect x="146.2" y="438.6" width="24.37" height="24.37"/>
  <rect x="170.57" y="438.6" width="24.37" height="24.37"/>
  <rect x="219.3" y="438.6" width="24.37" height="24.37"/>
  <rect x="243.66" y="438.6" width="24.37" height="24.37"/>
  <rect x="268.03" y="438.6" width="24.37" height="24.37"/>
  <rect x="316.76" y="438.6" width="24.37" height="24.37"/>
  <rect x="341.13" y="438.6" width="24.37" height="24.37"/>
  <rect x="365.5" y="438.6" width="24.37" height="24.37"/>
  <rect x="389.86" y="438.6" width="24.37" height="24.37"/>
  <rect x="462.96" y="438.6" width="24.37" height="24.37"/>
  <rect x="487.33" y="438.6" width="24.37" height="24.37"/>
  <rect x="511.7" y="438.6" width="24.37" height="24.37"/>
  <rect x="536.06" y="438.6" width="24.37" height="24.37"/>
  <rect x="584.79" y="438.6" width="24.37" height="24.37"/>
  <rect x="609.16" y="438.6" width="24.37" height="24.37"/>
  <rect x="657.89" y="438.6" width="24.37" height="24.37"/>
  <rect x="682.26" y="438.6" width="24.37" height="24.37"/>
  <rect x="706.63" y="438.6" width="24.37" height="24.37"/>
  <rect x="730.99" y="438.6" width="24.37" height="24.37"/>
  <rect x="779.73" y="438.6" width="24.37" height="24.37"/>
  <rect x="828.46" y="438.6" width="24.37" height="24.37"/>
  <rect x="877.19" y="438.6" width="24.37" height="24.37"/>
  <rect x="925.92" y="438.6" width="24.37" height="24.37"/>
  <rect y="462.96" width="24.37" height="24.37"/>
  <rect x="73.1" y="462.96" width="24.37" height="24.37"/>
  <rect x="97.47" y="462.96" width="24.37" height="24.37"/>
  <rect x="170.57" y="462.96" width="24.37" height="24.37"/>
  <rect x="219.3" y="462.96" width="24.37" height="24.37"/>
  <rect x="243.66" y="462.96" width="24.37" height="24.37"/>
  <rect x="389.86" y="462.96" width="24.37" height="24.37"/>
  <rect x="414.23" y="462.96" width="24.37" height="24.37"/>
  <rect x="438.6" y="462.96" width="24.37" height="24.37"/>
  <rect x="462.96" y="462.96" width="24.37" height="24.37"/>
  <rect x="487.33" y="462.96" width="24.37" height="24.37"/>
  <rect x="511.7" y="462.96" width="24.37" height="24.37"/>
  <rect x="584.79" y="462.96" width="24.37" height="24.37"/>
  <rect x="609.16" y="462.96" width="24.37" height="24.37"/>
  <rect x="657.89" y="462.96" width="24.37" height="24.37"/>
  <rect x="682.26" y="462.96" width="24.37" height="24.37"/>
  <rect x="706.63" y="462.96" width="24.37" height="24.37"/>
  <rect x="730.99" y="462.96" width="24.37" height="24.37"/>
  <rect x="779.73" y="462.96" width="24.37" height="24.37"/>
  <rect x="828.46" y="462.96" width="24.37" height="24.37"/>
  <rect x="852.83" y="462.96" width="24.37" height="24.37"/>
  <rect x="901.56" y="462.96" width="24.37" height="24.37"/>
  <rect x="925.92" y="462.96" width="24.37" height="24.37"/>
  <rect x="950.29" y="462.96" width="24.37" height="24.37"/>
  <rect y="487.33" width="24.37" height="24.37"/>
  <rect x="24.37" y="487.33" width="24.37" height="24.37"/>
  <rect x="146.2" y="487.33" width="24.37" height="24.37"/>
  <rect x="219.3" y="487.33" width="24.37" height="24.37"/>
  <rect x="389.86" y="487.33" width="24.37" height="24.37"/>
  <rect x="414.23" y="487.33" width="24.37" height="24.37"/>
  <rect x="462.96" y="487.33" width="24.37" height="24.37"/>
  <rect x="536.06" y="487.33" width="24.37" height="24.37"/>
  <rect x="560.43" y="487.33" width="24.37" height="24.37"/>
  <rect x="584.79" y="487.33" width="24.37" height="24.37"/>
  <rect x="609.16" y="487.33" width="24.37" height="24.37"/>
  <rect x="657.89" y="487.33" width="24.37" height="24.37"/>
  <rect x="682.26" y="487.33" width="24.37" height="24.37"/>
  <rect x="706.63" y="487.33" width="24.37" height="24.37"/>
  <rect x="730.99" y="487.33" width="24.37" height="24.37"/>
  <rect x="779.73" y="487.33" width="24.37" height="24.37"/>
  <rect x="804.09" y="487.33" width="24.37" height="24.37"/>
  <rect x="828.46" y="487.33" width="24.37" height="24.37"/>
  <rect x="852.83" y="487.33" width="24.37" height="24.37"/>
  <rect x="877.19" y="487.33" width="24.37" height="24.37"/>
  <rect x="901.56" y="487.33" width="24.37" height="24.37"/>
  <rect x="925.92" y="487.33" width="24.37" height="24.37"/>
  <rect y="511.7" width="24.37" height="24.37"/>
  <rect x="121.83" y="511.7" width="24.37" height="24.37"/>
  <rect x="170.57" y="511.7" width="24.37" height="24.37"/>
  <rect x="194.93" y="511.7" width="24.37" height="24.37"/>
  <rect x="292.4" y="511.7" width="24.37" height="24.37"/>
  <rect x="316.76" y="511.7" width="24.37" height="24.37"/>
  <rect x="341.13" y="511.7" width="24.37" height="24.37"/>
  <rect x="536.06" y="511.7" width="24.37" height="24.37"/>
  <rect x="560.43" y="511.7" width="24.37" height="24.37"/>
  <rect x="682.26" y="511.7" width="24.37" height="24.37"/>
  <rect x="755.36" y="511.7" width="24.37" height="24.37"/>
  <rect x="779.73" y="511.7" width="24.37" height="24.37"/>
  <rect x="804.09" y="511.7" width="24.37" height="24.37"/>
  <rect x="828.46" y="511.7" width="24.37" height="24.37"/>
  <rect x="877.19" y="511.7" width="24.37" height="24.37"/>
  <rect x="950.29" y="511.7" width="24.37" height="24.37"/>
  <rect x="974.66" y="511.7" width="24.37" height="24.37"/>
  <rect x="24.37" y="536.06" width="24.37" height="24.37"/>
  <rect x="73.1" y="536.06" width="24.37" height="24.37"/>
  <rect x="97.47" y="536.06" width="24.37" height="24.37"/>
  <rect x="146.2" y="536.06" width="24.37" height="24.37"/>
  <rect x="170.57" y="536.06" width="24.37" height="24.37"/>
  <rect x="194.93" y="536.06" width="24.37" height="24.37"/>
  <rect x="219.3" y="536.06" width="24.37" height="24.37"/>
  <rect x="243.66" y="536.06" width="24.37" height="24.37"/>
  <rect x="316.76" y="536.06" width="24.37" height="24.37"/>
  <rect x="341.13" y="536.06" width="24.37" height="24.37"/>
  <rect x="365.5" y="536.06" width="24.37" height="24.37"/>
  <rect x="389.86" y="536.06" width="24.37" height="24.37"/>
  <rect x="414.23" y="536.06" width="24.37" height="24.37"/>
  <rect x="560.43" y="536.06" width="24.37" height="24.37"/>
  <rect x="584.79" y="536.06" width="24.37" height="24.37"/>
  <rect x="633.53" y="536.06" width="24.37" height="24.37"/>
  <rect x="706.63" y="536.06" width="24.37" height="24.37"/>
  <rect x="730.99" y="536.06" width="24.37" height="24.37"/>
  <rect x="804.09" y="536.06" width="24.37" height="24.37"/>
  <rect x="852.83" y="536.06" width="24.37" height="24.37"/>
  <rect x="950.29" y="536.06" width="24.37" height="24.37"/>
  <rect x="48.73" y="560.43" width="24.37" height="24.37"/>
  <rect x="73.1" y="560.43" width="24.37" height="24.37"/>
  <rect x="97.47" y="560.43" width="24.37" height="24.37"/>
  <rect x="121.83" y="560.43" width="24.37" height="24.37"/>
  <rect x="194.93" y="560.43" width="24.37" height="24.37"/>
  <rect x="219.3" y="560.43" width="24.37" height="24.37"/>
  <rect x="243.66" y="560.43" width="24.37" height="24.37"/>
  <rect x="268.03" y="560.43" width="24.37" height="24.37"/>
  <rect x="292.4" y="560.43" width="24.37" height="24.37"/>
  <rect x="316.76" y="560.43" width="24.37" height="24.37"/>
  <rect x="438.6" y="560.43" width="24.37" height="24.37"/>
  <rect x="462.96" y="560.43" width="24.37" height="24.37"/>
  <rect x="487.33" y="560.43" width="24.37" height="24.37"/>
  <rect x="536.06" y="560.43" width="24.37" height="24.37"/>
  <rect x="584.79" y="560.43" width="24.37" height="24.37"/>
  <rect x="657.89" y="560.43" width="24.37" height="24.37"/>
  <rect x="730.99" y="560.43" width="24.37" height="24.37"/>
  <rect x="755.36" y="560.43" width="24.37" height="24.37"/>
  <rect x="828.46" y="560.43" width="24.37" height="24.37"/>
  <rect x="877.19" y="560.43" width="24.37" height="24.37"/>
  <rect x="974.66" y="560.43" width="24.37" height="24.37"/>
  <rect x="24.37" y="584.79" width="24.37" height="24.37"/>
  <rect x="48.73" y="584.79" width="24.37" height="24.37"/>
  <rect x="73.1" y="584.79" width="24.37" height="24.37"/>
  <rect x="97.47" y="584.79" width="24.37" height="24.37"/>
  <rect x="146.2" y="584.79" width="24.37" height="24.37"/>
  <rect x="170.57" y="584.79" width="24.37" height="24.37"/>
  <rect x="219.3" y="584.79" width="24.37" height="24.37"/>
  <rect x="292.4" y="584.79" width="24.37" height="24.37"/>
  <rect x="316.76" y="584.79" width="24.37" height="24.37"/>
  <rect x="414.23" y="584.79" width="24.37" height="24.37"/>
  <rect x="438.6" y="584.79" width="24.37" height="24.37"/>
  <rect x="487.33" y="584.79" width="24.37" height="24.37"/>
  <rect x="511.7" y="584.79" width="24.37" height="24.37"/>
  <rect x="560.43" y="584.79" width="24.37" height="24.37"/>
  <rect x="682.26" y="584.79" width="24.37" height="24.37"/>
  <rect x="706.63" y="584.79" width="24.37" height="24.37"/>
  <rect x="755.36" y="584.79" width="24.37" height="24.37"/>
  <rect x="804.09" y="584.79" width="24.37" height="24.37"/>
  <rect x="925.92" y="584.79" width="24.37" height="24.37"/>
  <rect x="950.29" y="584.79" width="24.37" height="24.37"/>
  <rect x="974.66" y="584.79" width="24.37" height="24.37"/>
  <rect x="48.73" y="609.16" width="24.37" height="24.37"/>
  <rect x="73.1" y="609.16" width="24.37" height="24.37"/>
  <rect x="97.47" y="609.16" width="24.37" height="24.37"/>
  <rect x="121.83" y="609.16" width="24.37" height="24.37"/>
  <rect x="170.57" y="609.16" width="24.37" height="24.37"/>
  <rect x="194.93" y="609.16" width="24.37" height="24.37"/>
  <rect x="219.3" y="609.16" width="24.37" height="24.37"/>
  <rect x="292.4" y="609.16" width="24.37" height="24.37"/>
  <rect x="341.13" y="609.16" width="24.37" height="24.37"/>
  <rect x="365.5" y="609.16" width="24.37" height="24.37"/>
  <rect x="389.86" y="609.16" width="24.37" height="24.37"/>
  <rect x="438.6" y="609.16" width="24.37" height="24.37"/>
  <rect x="462.96" y="609.16" width="24.37" height="24.37"/>
  <rect x="487.33" y="609.16" width="24.37" height="24.37"/>
  <rect x="584.79" y="609.16" width="24.37" height="24.37"/>
  <rect x="609.16" y="609.16" width="24.37" height="24.37"/>
  <rect x="633.53" y="609.16" width="24.37" height="24.37"/>
  <rect x="657.89" y="609.16" width="24.37" height="24.37"/>
  <rect x="682.26" y="609.16" width="24.37" height="24.37"/>
  <rect x="706.63" y="609.16" width="24.37" height="24.37"/>
  <rect x="755.36" y="609.16" width="24.37" height="24.37"/>
  <rect x="779.73" y="609.16" width="24.37" height="24.37"/>
  <rect x="828.46" y="609.16" width="24.37" height="24.37"/>
  <rect x="901.56" y="609.16" width="24.37" height="24.37"/>
  <rect x="925.92" y="609.16" width="24.37" height="24.37"/>
  <rect x="974.66" y="609.16" width="24.37" height="24.37"/>
  <rect x="73.1" y="633.53" width="24.37" height="24.37"/>
  <rect x="97.47" y="633.53" width="24.37" height="24.37"/>
  <rect x="146.2" y="633.53" width="24.37" height="24.37"/>
  <rect x="194.93" y="633.53" width="24.37" height="24.37"/>
  <rect x="219.3" y="633.53" width="24.37" height="24.37"/>
  <rect x="243.66" y="633.53" width="24.37" height="24.37"/>
  <rect x="292.4" y="633.53" width="24.37" height="24.37"/>
  <rect x="316.76" y="633.53" width="24.37" height="24.37"/>
  <rect x="341.13" y="633.53" width="24.37" height="24.37"/>
  <rect x="487.33" y="633.53" width="24.37" height="24.37"/>
  <rect x="511.7" y="633.53" width="24.37" height="24.37"/>
  <rect x="536.06" y="633.53" width="24.37" height="24.37"/>
  <rect x="560.43" y="633.53" width="24.37" height="24.37"/>
  <rect x="584.79" y="633.53" width="24.37" height="24.37"/>
  <rect x="633.53" y="633.53" width="24.37" height="24.37"/>
  <rect x="730.99" y="633.53" width="24.37" height="24.37"/>
  <rect x="755.36" y="633.53" width="24.37" height="24.37"/>
  <rect x="779.73" y="633.53" width="24.37" height="24.37"/>
  <rect x="828.46" y="633.53" width="24.37" height="24.37"/>
  <rect x="852.83" y="633.53" width="24.37" height="24.37"/>
  <rect x="901.56" y="633.53" width="24.37" height="24.37"/>
  <rect x="950.29" y="633.53" width="24.37" height="24.37"/>
  <rect x="974.66" y="633.53" width="24.37" height="24.37"/>
  <rect y="657.89" width="24.37" height="24.37"/>
  <rect x="24.37" y="657.89" width="24.37" height="24.37"/>
  <rect x="48.73" y="657.89" width="24.37" height="24.37"/>
  <rect x="73.1" y="657.89" width="24.37" height="24.37"/>
  <rect x="121.83" y="657.89" width="24.37" height="24.37"/>
  <rect x="243.66" y="657.89" width="24.37" height="24.37"/>
  <rect x="341.13" y="657.89" width="24.37" height="24.37"/>
  <rect x="365.5" y="657.89" width="24.37" height="24.37"/>
  <rect x="414.23" y="657.89" width="24.37" height="24.37"/>
  <rect x="462.96" y="657.89" width="24.37" height="24.37"/>
  <rect x="487.33" y="657.89" width="24.37" height="24.37"/>
  <rect x="584.79" y="657.89" width="24.37" height="24.37"/>
  <rect x="609.16" y="657.89" width="24.37" height="24.37"/>
  <rect x="755.36" y="657.89" width="24.37" height="24.37"/>
  <rect x="779.73" y="657.89" width="24.37" height="24.37"/>
  <rect x="877.19" y="657.89" width="24.37" height="24.37"/>
  <rect x="901.56" y="657.89" width="24.37" height="24.37"/>
  <rect y="682.26" width="24.37" height="24.37"/>
  <rect x="24.37" y="682.26" width="24.37" height="24.37"/>
  <rect x="48.73" y="682.26" width="24.37" height="24.37"/>
  <rect x="146.2" y="682.26" width="24.37" height="24.37"/>
  <rect x="194.93" y="682.26" width="24.37" height="24.37"/>
  <rect x="243.66" y="682.26" width="24.37" height="24.37"/>
  <rect x="341.13" y="682.26" width="24.37" height="24.37"/>
  <rect x="389.86" y="682.26" width="24.37" height="24.37"/>
  <rect x="462.96" y="682.26" width="24.37" height="24.37"/>
  <rect x="487.33" y="682.26" width="24.37" height="24.37"/>
  <rect x="511.7" y="682.26" width="24.37" height="24.37"/>
  <rect x="560.43" y="682.26" width="24.37" height="24.37"/>
  <rect x="584.79" y="682.26" width="24.37" height="24.37"/>
  <rect x="730.99" y="682.26" width="24.37" height="24.37"/>
  <rect x="755.36" y="682.26" width="24.37" height="24.37"/>
  <rect x="779.73" y="682.26" width="24.37" height="24.37"/>
  <rect x="877.19" y="682.26" width="24.37" height="24.37"/>
  <rect x="901.56" y="682.26" width="24.37" height="24.37"/>
  <rect x="950.29" y="682.26" width="24.37" height="24.37"/>
  <rect x="48.73" y="706.63" width="24.37" height="24.37"/>
  <rect x="121.83" y="706.63" width="24.37" height="24.37"/>
  <rect x="194.93" y="706.63" width="24.37" height="24.37"/>
  <rect x="268.03" y="706.63" width="24.37" height="24.37"/>
  <rect x="316.76" y="706.63" width="24.37" height="24.37"/>
  <rect x="341.13" y="706.63" width="24.37" height="24.37"/>
  <rect x="438.6" y="706.63" width="24.37" height="24.37"/>
  <rect x="487.33" y="706.63" width="24.37" height="24.37"/>
  <rect x="536.06" y="706.63" width="24.37" height="24.37"/>
  <rect x="560.43" y="706.63" width="24.37" height="24.37"/>
  <rect x="682.26" y="706.63" width="24.37" height="24.37"/>
  <rect x="706.63" y="706.63" width="24.37" height="24.37"/>
  <rect x="779.73" y="706.63" width="24.37" height="24.37"/>
  <rect x="804.09" y="706.63" width="24.37" height="24.37"/>
  <rect x="852.83" y="706.63" width="24.37" height="24.37"/>
  <rect x="925.92" y="706.63" width="24.37" height="24.37"/>
  <rect y="730.99" width="24.37" height="24.37"/>
  <rect x="97.47" y="730.99" width="24.37" height="24.37"/>
  <rect x="146.2" y="730.99" width="24.37" height="24.37"/>
  <rect x="170.57" y="730.99" width="24.37" height="24.37"/>
  <rect x="219.3" y="730.99" width="24.37" height="24.37"/>
  <rect x="243.66" y="730.99" width="24.37" height="24.37"/>
  <rect x="292.4" y="730.99" width="24.37" height="24.37"/>
  <rect x="389.86" y="730.99" width="24.37" height="24.37"/>
  <rect x="414.23" y="730.99" width="24.37" height="24.37"/>
  <rect x="560.43" y="730.99" width="24.37" height="24.37"/>
  <rect x="633.53" y="730.99" width="24.37" height="24.37"/>
  <rect x="657.89" y="730.99" width="24.37" height="24.37"/>
  <rect x="682.26" y="730.99" width="24.37" height="24.37"/>
  <rect x="706.63" y="730.99" width="24.37" height="24.37"/>
  <rect x="779.73" y="730.99" width="24.37" height="24.37"/>
  <rect x="804.09" y="730.99" width="24.37" height="24.37"/>
  <rect x="828.46" y="730.99" width="24.37" height="24.37"/>
  <rect x="901.56" y="730.99" width="24.37" height="24.37"/>
  <rect x="925.92" y="730.99" width="24.37" height="24.37"/>
  <rect x="950.29" y="730.99" width="24.37" height="24.37"/>
  <rect x="73.1" y="755.36" width="24.37" height="24.37"/>
  <rect x="97.47" y="755.36" width="24.37" height="24.37"/>
  <rect x="121.83" y="755.36" width="24.37" height="24.37"/>
  <rect x="170.57" y="755.36" width="24.37" height="24.37"/>
  <rect x="194.93" y="755.36" width="24.37" height="24.37"/>
  <rect x="219.3" y="755.36" width="24.37" height="24.37"/>
  <rect x="243.66" y="755.36" width="24.37" height="24.37"/>
  <rect x="292.4" y="755.36" width="24.37" height="24.37"/>
  <rect x="316.76" y="755.36" width="24.37" height="24.37"/>
  <rect x="341.13" y="755.36" width="24.37" height="24.37"/>
  <rect x="365.5" y="755.36" width="24.37" height="24.37"/>
  <rect x="438.6" y="755.36" width="24.37" height="24.37"/>
  <rect x="487.33" y="755.36" width="24.37" height="24.37"/>
  <rect x="511.7" y="755.36" width="24.37" height="24.37"/>
  <rect x="560.43" y="755.36" width="24.37" height="24.37"/>
  <rect x="584.79" y="755.36" width="24.37" height="24.37"/>
  <rect x="609.16" y="755.36" width="24.37" height="24.37"/>
  <rect x="706.63" y="755.36" width="24.37" height="24.37"/>
  <rect x="828.46" y="755.36" width="24.37" height="24.37"/>
  <rect x="877.19" y="755.36" width="24.37" height="24.37"/>
  <rect x="901.56" y="755.36" width="24.37" height="24.37"/>
  <rect x="925.92" y="755.36" width="24.37" height="24.37"/>
  <rect x="950.29" y="755.36" width="24.37" height="24.37"/>
  <rect x="974.66" y="755.36" width="24.37" height="24.37"/>
  <rect x="24.37" y="779.73" width="24.37" height="24.37"/>
  <rect x="48.73" y="779.73" width="24.37" height="24.37"/>
  <rect x="97.47" y="779.73" width="24.37" height="24.37"/>
  <rect x="146.2" y="779.73" width="24.37" height="24.37"/>
  <rect x="194.93" y="779.73" width="24.37" height="24.37"/>
  <rect x="292.4" y="779.73" width="24.37" height="24.37"/>
  <rect x="316.76" y="779.73" width="24.37" height="24.37"/>
  <rect x="341.13" y="779.73" width="24.37" height="24.37"/>
  <rect x="365.5" y="779.73" width="24.37" height="24.37"/>
  <rect x="462.96" y="779.73" width="24.37" height="24.37"/>
  <rect x="487.33" y="779.73" width="24.37" height="24.37"/>
  <rect x="511.7" y="779.73" width="24.37" height="24.37"/>
  <rect x="536.06" y="779.73" width="24.37" height="24.37"/>
  <rect x="682.26" y="779.73" width="24.37" height="24.37"/>
  <rect x="706.63" y="779.73" width="24.37" height="24.37"/>
  <rect x="730.99" y="779.73" width="24.37" height="24.37"/>
  <rect x="779.73" y="779.73" width="24.37" height="24.37"/>
  <rect x="804.09" y="779.73" width="24.37" height="24.37"/>
  <rect x="828.46" y="779.73" width="24.37" height="24.37"/>
  <rect x="852.83" y="779.73" width="24.37" height="24.37"/>
  <rect x="877.19" y="779.73" width="24.37" height="24.37"/>
  <rect x="901.56" y="779.73" width="24.37" height="24.37"/>
  <rect x="925.92" y="779.73" width="24.37" height="24.37"/>
  <rect x="950.29" y="779.73" width="24.37" height="24.37"/>
  <rect x="194.93" y="804.09" width="24.37" height="24.37"/>
  <rect x="268.03" y="804.09" width="24.37" height="24.37"/>
  <rect x="316.76" y="804.09" width="24.37" height="24.37"/>
  <rect x="341.13" y="804.09" width="24.37" height="24.37"/>
  <rect x="365.5" y="804.09" width="24.37" height="24.37"/>
  <rect x="389.86" y="804.09" width="24.37" height="24.37"/>
  <rect x="438.6" y="804.09" width="24.37" height="24.37"/>
  <rect x="487.33" y="804.09" width="24.37" height="24.37"/>
  <rect x="511.7" y="804.09" width="24.37" height="24.37"/>
  <rect x="536.06" y="804.09" width="24.37" height="24.37"/>
  <rect x="560.43" y="804.09" width="24.37" height="24.37"/>
  <rect x="633.53" y="804.09" width="24.37" height="24.37"/>
  <rect x="779.73" y="804.09" width="24.37" height="24.37"/>
  <rect x="877.19" y="804.09" width="24.37" height="24.37"/>
  <rect x="901.56" y="804.09" width="24.37" height="24.37"/>
  <rect x="950.29" y="804.09" width="24.37" height="24.37"/>
  <rect x="974.66" y="804.09" width="24.37" height="24.37"/>
  <rect x="194.93" y="828.46" width="24.37" height="24.37"/>
  <rect x="219.3" y="828.46" width="24.37" height="24.37"/>
  <rect x="243.66" y="828.46" width="24.37" height="24.37"/>
  <rect x="292.4" y="828.46" width="24.37" height="24.37"/>
  <rect x="316.76" y="828.46" width="24.37" height="24.37"/>
  <rect x="414.23" y="828.46" width="24.37" height="24.37"/>
  <rect x="438.6" y="828.46" width="24.37" height="24.37"/>
  <rect x="511.7" y="828.46" width="24.37" height="24.37"/>
  <rect x="536.06" y="828.46" width="24.37" height="24.37"/>
  <rect x="584.79" y="828.46" width="24.37" height="24.37"/>
  <rect x="609.16" y="828.46" width="24.37" height="24.37"/>
  <rect x="682.26" y="828.46" width="24.37" height="24.37"/>
  <rect x="706.63" y="828.46" width="24.37" height="24.37"/>
  <rect x="730.99" y="828.46" width="24.37" height="24.37"/>
  <rect x="755.36" y="828.46" width="24.37" height="24.37"/>
  <rect x="779.73" y="828.46" width="24.37" height="24.37"/>
  <rect x="828.46" y="828.46" width="24.37" height="24.37"/>
  <rect x="877.19" y="828.46" width="24.37" height="24.37"/>
  <rect x="901.56" y="828.46" width="24.37" height="24.37"/>
  <rect x="925.92" y="828.46" width="24.37" height="24.37"/>
  <rect x="950.29" y="828.46" width="24.37" height="24.37"/>
  <rect x="219.3" y="852.83" width="24.37" height="24.37"/>
  <rect x="268.03" y="852.83" width="24.37" height="24.37"/>
  <rect x="365.5" y="852.83" width="24.37" height="24.37"/>
  <rect x="414.23" y="852.83" width="24.37" height="24.37"/>
  <rect x="438.6" y="852.83" width="24.37" height="24.37"/>
  <rect x="487.33" y="852.83" width="24.37" height="24.37"/>
  <rect x="536.06" y="852.83" width="24.37" height="24.37"/>
  <rect x="609.16" y="852.83" width="24.37" height="24.37"/>
  <rect x="633.53" y="852.83" width="24.37" height="24.37"/>
  <rect x="657.89" y="852.83" width="24.37" height="24.37"/>
  <rect x="682.26" y="852.83" width="24.37" height="24.37"/>
  <rect x="779.73" y="852.83" width="24.37" height="24.37"/>
  <rect x="877.19" y="852.83" width="24.37" height="24.37"/>
  <rect x="950.29" y="852.83" width="24.37" height="24.37"/>
  <rect x="974.66" y="852.83" width="24.37" height="24.37"/>
  <rect x="219.3" y="877.19" width="24.37" height="24.37"/>
  <rect x="268.03" y="877.19" width="24.37" height="24.37"/>
  <rect x="292.4" y="877.19" width="24.37" height="24.37"/>
  <rect x="365.5" y="877.19" width="24.37" height="24.37"/>
  <rect x="462.96" y="877.19" width="24.37" height="24.37"/>
  <rect x="560.43" y="877.19" width="24.37" height="24.37"/>
  <rect x="584.79" y="877.19" width="24.37" height="24.37"/>
  <rect x="657.89" y="877.19" width="24.37" height="24.37"/>
  <rect x="706.63" y="877.19" width="24.37" height="24.37"/>
  <rect x="779.73" y="877.19" width="24.37" height="24.37"/>
  <rect x="804.09" y="877.19" width="24.37" height="24.37"/>
  <rect x="828.46" y="877.19" width="24.37" height="24.37"/>
  <rect x="852.83" y="877.19" width="24.37" height="24.37"/>
  <rect x="877.19" y="877.19" width="24.37" height="24.37"/>
  <rect x="925.92" y="877.19" width="24.37" height="24.37"/>
  <rect x="974.66" y="877.19" width="24.37" height="24.37"/>
  <rect x="194.93" y="901.56" width="24.37" height="24.37"/>
  <rect x="268.03" y="901.56" width="24.37" height="24.37"/>
  <rect x="292.4" y="901.56" width="24.37" height="24.37"/>
  <rect x="316.76" y="901.56" width="24.37" height="24.37"/>
  <rect x="341.13" y="901.56" width="24.37" height="24.37"/>
  <rect x="365.5" y="901.56" width="24.37" height="24.37"/>
  <rect x="414.23" y="901.56" width="24.37" height="24.37"/>
  <rect x="536.06" y="901.56" width="24.37" height="24.37"/>
  <rect x="560.43" y="901.56" width="24.37" height="24.37"/>
  <rect x="584.79" y="901.56" width="24.37" height="24.37"/>
  <rect x="609.16" y="901.56" width="24.37" height="24.37"/>
  <rect x="633.53" y="901.56" width="24.37" height="24.37"/>
  <rect x="657.89" y="901.56" width="24.37" height="24.37"/>
  <rect x="706.63" y="901.56" width="24.37" height="24.37"/>
  <rect x="755.36" y="901.56" width="24.37" height="24.37"/>
  <rect x="779.73" y="901.56" width="24.37" height="24.37"/>
  <rect x="877.19" y="901.56" width="24.37" height="24.37"/>
  <rect x="925.92" y="901.56" width="24.37" height="24.37"/>
  <rect x="950.29" y="901.56" width="24.37" height="24.37"/>
  <rect x="974.66" y="901.56" width="24.37" height="24.37"/>
  <rect x="194.93" y="925.92" width="24.37" height="24.37"/>
  <rect x="243.66" y="925.92" width="24.37" height="24.37"/>
  <rect x="341.13" y="925.92" width="24.37" height="24.37"/>
  <rect x="365.5" y="925.92" width="24.37" height="24.37"/>
  <rect x="389.86" y="925.92" width="24.37" height="24.37"/>
  <rect x="438.6" y="925.92" width="24.37" height="24.37"/>
  <rect x="462.96" y="925.92" width="24.37" height="24.37"/>
  <rect x="487.33" y="925.92" width="24.37" height="24.37"/>
  <rect x="560.43" y="925.92" width="24.37" height="24.37"/>
  <rect x="633.53" y="925.92" width="24.37" height="24.37"/>
  <rect x="682.26" y="925.92" width="24.37" height="24.37"/>
  <rect x="779.73" y="925.92" width="24.37" height="24.37"/>
  <rect x="852.83" y="925.92" width="24.37" height="24.37"/>
  <rect x="925.92" y="925.92" width="24.37" height="24.37"/>
  <rect x="974.66" y="925.92" width="24.37" height="24.37"/>
  <rect x="219.3" y="950.29" width="24.37" height="24.37"/>
  <rect x="243.66" y="950.29" width="24.37" height="24.37"/>
  <rect x="316.76" y="950.29" width="24.37" height="24.37"/>
  <rect x="365.5" y="950.29" width="24.37" height="24.37"/>
  <rect x="511.7" y="950.29" width="24.37" height="24.37"/>
  <rect x="633.53" y="950.29" width="24.37" height="24.37"/>
  <rect x="779.73" y="950.29" width="24.37" height="24.37"/>
  <rect x="877.19" y="950.29" width="24.37" height="24.37"/>
  <rect x="901.56" y="950.29" width="24.37" height="24.37"/>
  <rect x="950.29" y="950.29" width="24.37" height="24.37"/>
  <rect x="243.66" y="974.66" width="24.37" height="24.37"/>
  <rect x="341.13" y="974.66" width="24.37" height="24.37"/>
  <rect x="389.86" y="974.66" width="24.37" height="24.37"/>
  <rect x="438.6" y="974.66" width="24.37" height="24.37"/>
  <rect x="462.96" y="974.66" width="24.37" height="24.37"/>
  <rect x="536.06" y="974.66" width="24.37" height="24.37"/>
  <rect x="560.43" y="974.66" width="24.37" height="24.37"/>
  <rect x="584.79" y="974.66" width="24.37" height="24.37"/>
  <rect x="730.99" y="974.66" width="24.37" height="24.37"/>
  <rect x="755.36" y="974.66" width="24.37" height="24.37"/>
  <rect x="779.73" y="974.66" width="24.37" height="24.37"/>
  <rect x="804.09" y="974.66" width="24.37" height="24.37"/>
  <rect x="828.46" y="974.66" width="24.37" height="24.37"/>
  <rect x="950.29" y="974.66" width="24.37" height="24.37"/>
  <g>
    <rect x="25.58" y="25.58" width="119.4" height="119.4" style="fill: none;"/>
    <path d="M144.98,0H0V170.57H170.57V0h-25.58Zm0,144.98H25.58V25.58h119.4v119.4Z"/>
  </g>
  <g>
    <rect x="854.04" y="25.58" width="119.4" height="119.4" style="fill: none;"/>
    <path d="M973.44,0h-144.98V170.57h170.57V0h-25.58Zm0,144.98h-119.4V25.58h119.4v119.4Z"/>
  </g>
  <g>
    <rect x="25.58" y="854.04" width="119.4" height="119.4" style="fill: none;"/>
    <path d="M144.98,828.46H0v170.57H170.57v-170.57h-25.58Zm0,144.98H25.58v-119.4h119.4v119.4Z"/>
  </g>
  <rect x="48.73" y="48.73" width="73.1" height="73.1"/>
  <rect x="877.19" y="48.73" width="73.1" height="73.1"/>
  <rect x="48.73" y="877.19" width="73.1" height="73.1"/>
  <g>
    <g id="g3">
      <circle id="circle10" cx="499.51" cy="499.51" r="158.38" style="fill: url(#linear-gradient);"/>
    </g>
    <g id="g12">
      <g id="g14">
        <path id="path16" d="M544.88,598.5h-90.74c-29.57,0-53.62-24.05-53.62-53.62v-90.74c0-29.57,24.05-53.62,53.62-53.62h90.74c29.57,0,53.62,24.05,53.62,53.62v90.74c0,29.57-24.05,53.62-53.62,53.62Zm-90.74-181.48c-20.47,0-37.12,16.65-37.12,37.12v90.74c0,20.47,16.65,37.12,37.12,37.12h90.74c20.47,0,37.12-16.65,37.12-37.12v-90.74c0-20.47-16.65-37.12-37.12-37.12h-90.74Z" style="fill: #fff;"/>
      </g>
      <g id="g18">
        <path id="path20" d="M499.51,549.01c-27.29,0-49.49-22.21-49.49-49.49s22.2-49.49,49.49-49.49,49.49,22.2,49.49,49.49-22.2,49.49-49.49,49.49Zm0-82.49c-18.19,0-33,14.8-33,33s14.8,33,33,33,33-14.8,33-33-14.8-33-33-33Z" style="fill: #fff;"/>
      </g>
      <g id="g22">
        <circle id="circle24" cx="552.1" cy="446.92" r="11.34" style="fill: #fff;"/>
      </g>
    </g>
  </g>
</svg>