<?xml version="1.0" encoding="utf-8"?>
<!-- Generator: Adobe Illustrator 27.0.0, SVG Export Plug-In . SVG Version: 6.00 Build 0)  -->
<svg version="1.1" id="Layer_1" xmlns="http://www.w3.org/2000/svg" xmlns:xlink="http://www.w3.org/1999/xlink" x="0px" y="0px"
	 viewBox="0 0 500 500" style="enable-background:new 0 0 500 500;" xml:space="preserve">
<style type="text/css">
	.st0{fill:#FFFFFF;}
</style>
<g>
	<g>
		<path class="st0" d="M496.8,500c-163.5,0-326.6,0-489.8,0C7,335.7,7,171.5,7,7c163.2,0,326.5,0,489.8,0
			C496.8,171.2,496.8,335.5,496.8,500z M344.2,244.6c5.6,0,11.2,0,17.2,0c0-6.2,0-11.7,0-17.2c5.3,0,10.6,0,16.6,0
			c0,6.2,0,11.7,0,17.6c6,0,11.3,0,16.5,0c0,5.6,0,10.7,0,16.2c-11,0-21.7,0-32.5,0c0,5.8,0,11.1,0,17c5.4,0,10.4,0,15.3,0
			c0,6.2,0,11.6,0,17.5c-5.4,0-10.3,0-15.9,0c0,11.3,0,22.1,0,33.4c-11.9,0-23.2,0-34.4,0c0-11.2-0.1-22.5-0.1-33.7
			c5.6,0,11.3,0,17,0c0-6.2,0-11.4,0-16.7c-5.6,0-10.8,0-16.8,0c0,5.9,0,11.4,0,16.9c-10.8-1.6-20.3,0.2-26.9,10.2
			c-0.7,1.1-2.2,1.8-3.2,2.8c-0.8,0.8-2,1.8-2,2.8c-0.2,5.6-0.1,11.3-0.1,17.6c11.2,0,21.7,0,32.2,0c0,5.5,0,11,0,17
			c6.4,0,11.6,0,17,0c0,6,0,11.5,0,17.5c-5.4,0-10.5,0-15.5,0c0,5.3,0,10,0,14.9c1.5,0,2.6,0,3.6,0c14.2,0.1,14.2,0.1,13.1,14.4
			c0,0.2,0.1,0.4,0,0.5c-1,1.1-2,3.1-3.2,3.2c-4.9,0.4-9.9,0.2-15.4,0.2c0-6.1,0-11.6,0-17.4c-11.3,0-22,0-32.7,0
			c0-5.5,0-10.6,0-16.3c5.6,0,10.9,0,16.5,0c0-5.8,0-11.1,0-16.5c-16.8,0-33.3,0-49.8,0c0,5.4,0,10.3,0,15.7c4.5,0,8.8-0.3,13,0.2
			c1.4,0.2,3.6,2.3,3.7,3.7c0.3,9,0.3,17.9,0,26.9c0,1.3-1.7,3.5-2.7,3.6c-5.1,0.4-10.2,0.2-15.7,0.2c0-6.1,0-11.4,0-17.3
			c-11.2,0-22,0-33.2,0c0-5.6,0-10.5,0-16c-5.5,0-10.6,0-16,0c0-6,0-11.4,0-17c5.9,0,11.4,0,17.6,0c0,5.6,0,10.7,0,15.5
			c5.5,0,10.5,0,15.5,0c0-11.1,0-21.7,0-32.9c-5.4,0-10.5,0-15.9,0c-0.1-2.1-0.3-3.6-0.4-5.2c-0.2-6-1.5-7.1-7.5-5.6
			c-7.2,1.8-14.4,3.5-21.6,5.6c-5.2,1.5-9.7,1.4-13.8-2.6c-3.9-3.9-3.9-8.5-2.5-13.5c1-3.8,1.9-7.7,2.8-11.8c-3-0.3-5.3-0.5-7.7-0.7
			c0-5.9,0-11.4,0-17c2.8,0,5.6,0,8.8,0c-1.5-6-2.8-11.3-4.2-16.8c-1.5-0.1-3-0.1-4.6-0.2c0-5.2,0-10.4,0-14.1
			c2.3-2.4,4.8-3.8,5.1-5.5c4.2-24.8,17.5-43,39.9-54.1c4.6-2.3,5.3-4.8,3.9-9.3c-4.3,0-8.4-0.1-12.5,0c-3,0.1-4.2-1.1-4.1-4.1
			c0.1-4.2,0-8.5,0-13.1c-4.5,0-8.5,0.3-12.3-0.2c-1.4-0.2-3.5-2-3.6-3.2c-0.4-4.8-0.2-9.6-0.2-14.6c6,0,11.4,0,17.5,0
			c0,5.8,0,11.2,0,17.1c5.9,0,11.2,0,17.1,0c0,5.9,0,11.3,0,16.7c10.9,0,21.2,0,32.2,0c0-11.5,0-22.7,0-34.3c11.7,0,22.7,0,33.8,0
			c0-10.9,0-21.4,0-31.7c-5.4,0-10.3,0-15.6,0c0,4.2,0.2,8.2,0,12.1c-0.7,9.5-7.9,3.4-12,4.7c-3.3,1.1-6.9,0.5-6.4-4.9
			c0.4-3.9,0.1-7.8,0.1-11.8c-5.3,0-10,0-15,0c0,7,0,13.6,0,20.3c0,12.8,0,12.6-12.7,12.8c-4.6,0.1-5.9-1.5-5.7-5.9
			c0.3-9.1,0.1-18.2,0.1-27.3c-5.7,0-10.6,0-16,0c0,3.3,0,6.3,0,9.3c0,7.6,0,7.7-7.5,7.6c-11.1-0.1-9.6,1.2-9.7-9.7
			c-0.1-8.2,0-16.3,0-24.9c-5.8,0-10.8,0-15.9,0c0-6,0-11.6,0-17.1c5.9,0,11.3,0,17.3,0c0,5.6,0,10.7,0,15.9c5.1,0,9.7,0,14.4,0
			c0-10.7,0-21.2,0-32c-3.6,0-6.8-0.2-10,0.1c-4.4,0.4-6-1.1-5.9-5.7c0.3-9.4,0.1-18.9,0.1-28.3c-5.7,0-10.8,0-16.3,0
			c0,5.8,0,11.1,0,16.9c-11.5,0-22.5,0-33.7,0c0,5.6,0,10.6,0,16.1c5.7,0,11,0,16.4,0c0,11.6,0,22.8,0,34.5c-5.7,0-11,0-16.4,0
			c0,11.3,0,22.1,0,32.8c5.7,0,10.9,0,16.7,0c0-5.8,0-11.1,0-16.4c6,0,11.4,0,16.9,0c0,6.1,0,11.9,0,18.2c-5.7,0-11,0-16.4,0
			c0,5.2,0,9.9,0,15c5.7,0,11,0,16.9,0c0,11.6,0,22.8,0,34.4c5.9,0,11.2,0,16.7,0c0,5.6,0,10.6,0,16.4c-5.7,0-11.2,0-17.1,0
			c0,11.7,0,22.8,0,34.2c-6,0-11.6,0-17.1,0c0-11.3,0-22.5,0-34.1c-6,0-11.3,0-17.2,0c0,5.8,0,11.2,0,16.6c-17.1,0-33.5,0-50.5,0
			c0-16.7,0-33.1,0-49.9c-5.4,0-10.3,0-16,0c0,5.7,0,11.1,0,16.8c-6.3,0-11.8,0-17.3,0c0-11.2,0-22.4,0-33.9c-5.8,0-11,0-17,0
			c0,5.7,0,11.2,0,16.7c-6.3,0-11.8,0-17.3,0c0-5.3,0-10.6,0-15.9c-5.3,0-10,0-14.6,0c0,5.4,0,10.5,0,15.7c5.2,0,10,0,14.8,0
			c0,5.7,0,11.3,0,17.8c-5.6,0-10.7,0-15.7,0c0,5.5,0,10.3,0,15.6c11.2,0,22,0,32.9,0c0,5.8,0,11.6-0.1,17.5c-5.5,0-11,0-17.1,0
			c0,6.1,0,11.5,0,17.5c-5.4,0-10.2,0-14.8,0c0,11.2,0,21.9,0,33.1c5.1,0,9.8,0,15,0c0,11.6,0,22.6,0,34.3c11.7,0,22.9,0,34.1,0
			c0,5.3,0,10.6,0,16.4c-17,0-33.3,0-50,0c0,5.8,0,11,0,17c16.8,0,33.3,0,50.4,0c0,11.8,0,22.8,0,33.8c5.8,0,11.1,0,16.8,0
			c0-11.5,0-22.5,0-34c5.4,0,10.4,0,15.9,0c0-6,0-11.5,0-17c5.8,0,11.6,0,17.4,0.1c0,5.6,0,11.2,0,17.4c17.4,0,33.9,0,50.4,0
			l-0.1-0.1c0.1,5.7,0.1,11.4,0.2,17.1l-0.2,0.2c-5.5,0-11,0-16.6,0c0,16.9,0,33.3,0,50.1c4.3,0,8.2-0.1,12.1,0
			c3.2,0.2,4.5-1,4.4-4.3c-0.2-4.2-0.1-8.4-0.1-12.4c17.5,0,34,0,50.9,0c0,16.6,0,32.7,0,49.3c10,0,19.6,0.1,29.2-0.1
			c3.7-0.1,5.3,1.1,5,4.9c-0.3,4-0.1,8.1-0.1,12.1c5.4,0,10,0,15,0c0-9.4,0.2-18.6-0.1-27.7c-0.1-4.4,1.4-5.6,5.6-5.4
			c9.4,0.3,18.9,0.1,28.9,0.1c0-4.8-0.3-9.1,0.2-13.3c0.2-1.4,2.3-3.8,3.5-3.7c17.7,0.1,14.1-3.1,14.6,13.8c0.1,3.3-1.2,4.5-4.4,4.4
			c-4.2-0.2-8.4,0-12.5,0c0,11.2,0,21.5,0,32c5.3,0,10.2,0,15.8,0c0-5.7,0-11.1,0-16.6c17.2,0,33.7,0,50.8,0c0,5.7,0,11,0,16.5
			c5.4,0,10.3,0,15.7,0c0-5.4,0-10.6,0-16c11.7,0,22.9,0,34.3,0c0,11.5,0,22.9,0,34.9c-5.8,0-11.2,0-16.4,0c0,5.6,0,10.5,0,15.9
			c5.7,0,11,0,16.9,0c0,5.6,0,10.6,0,15.5c6,0,11.2,0,17,0c0-5.4,0-10.3,0-15.8c5.4,0,10.4,0,15.4,0c0-5.6,0-10.6,0-16.2
			c-5.4,0-10.3,0-15.2,0c0-6.3,0-12.1,0-17.7c11.2,0,22,0,33.3,0c0,5.7,0,11,0,16.4c11.1,0,21.7,0,32.5,0c0-5.3,0-10.2,0-15.9
			c-5.4,0-10.4,0-15.4,0c0-6.2,0-11.6,0-17.9c5.4,0,10.5,0,15.4,0c0-5.4,0-10.1,0-14.8c-11,0-21.8,0-33,0c0,5.4,0,10.4,0,15.3
			c-5.9,0-11.3,0-17.2,0c0-5.3,0-10.3,0-15.9c-5.5,0-10.6,0-15.6,0c0-11.9,0-23.1,0-34.9c11,0,21.7,0,33,0c0-5.6,0-10.6,0-15.6
			c5.8,0,11.5,0,17.3,0.1c0,10.8,0,21.6,0,32.3c5.7,0,10.6,0,15.5,0c0-11,0-21.4,0-32.1c-5.4,0-10.5,0-15.7,0c0-5.7,0-11.3,0-17.1
			c-6.1,0-11.5,0-17,0c0,6,0,11.5,0,17c-5.7,0-11.3,0-17.7,0c0-6.3,0-11.8,0-17.7c-22.8,0-44.9,0-67,0c0-6,0-11.4,0-17.4
			c5.7,0,11,0,17,0c0-11.3,0-22.2,0-33.5c6,0,11.3,0,17.1,0c0-5.8,0-11.1,0-17.1c5.9,0,11.3,0,16.7,0c0-6,0-11.3,0-17
			c-5.7,0-11,0-16.4,0c0-17.1,0-33.6,0-50.7c11,0,21.7,0,33,0c0-5.9,0-11.4,0-17.3c6,0,11.3,0,17.1,0c0-5.7,0-10.8,0-16
			c5.7,0,11.3,0,17.6,0c0,5.8,0,10.9,0,15.9c5.2,0,9.8,0,14.4,0c0-16.5,0-32.7,0-48.9c-5,0-9.6,0-14.7,0c0,5.4,0,10.5,0,15.9
			c-6.1,0-11.6,0-17.1,0c0-5.5,0-11,0-16.6c-6.2,0-11.5,0-16.8,0c0,5.7,0,10.9,0,16.5c5.9,0,11.4,0,17,0c-0.1,5.8-0.1,11.6-0.2,17.5
			c-16.9,0-33.8,0-50.6,0c0-11.2,0-22.4,0-34c-5.9,0-11.1,0-17.1,0c0,5.7,0,11.1,0,17c-6,0-11.3,0-17.1,0c0,11.4,0,22.2,0,33.1
			c-5.3,0-10.6,0-16.5,0c0-16.9,0-33.1,0-49.3c-5.5,0-10.5,0-15.8,0c0,4.4-0.1,8.5,0,12.5c0.1,3.2-1.1,4.6-4.4,4.4
			c-4.2-0.2-8.4,0-12.6,0c0,5.8,0,10.7,0,16.2c5.4,0,10.5,0,16.2,0c0,11.4,0,22.2,0,33.5c6,0,11.3,0,16.9,0c0,6,0,11.6,0,17.1
			c-5.6,0-11.1,0-17.2,0c0,6.3,0,11.8,0,17.2c-5.3,0-10.6,0-15.8,0c0,5.8,0,10.8,0,15.7c5.4,0,10.3,0,15.6,0
			C344.2,254.9,344.2,249.8,344.2,244.6z M445.2,311.4c11.4,0,22.7,0,34.6,0c0,6,0,11.3,0,16.8c5.4,0,10.3,0,15.3,0
			c0-16.8,0-33.2,0-49.6c-5.3,0-10.2,0-15.7,0c0,5.8,0,11.2,0,17.1c-11.6,0-22.7,0-34,0c0,5.6,0,10.8,0,15.9c-11,0-22,0-33,0
			c0,5.9,0,11.2,0,16.6c10.9,0,21.5,0,32.9,0C445.2,322.4,445.2,316.9,445.2,311.4z M194.3,9.2c0,5.2,0,9.9,0,14.8
			c4.2,0,7.9,0.1,11.7,0c3-0.1,4.2,1.2,4.1,4.2c-0.1,4.2,0,8.5,0,13.1c10,0,19.2,0.3,28.5-0.1c4.9-0.2,6.2,1.6,5.9,6.2
			c-0.3,7.3-0.4,14.7,0,22.1c0.3,5.4-1.8,7-6.8,6.5c-3.3-0.3-6.7-0.1-10.2-0.1c0,5.6,0,10.7,0,16.2c11,0,21.7,0,33,0
			c0,5.9,0,11.3,0,16.7c5.7,0,10.7,0,15.6,0c0-11.1,0-21.8,0-32.9c-1.8,0-3.2,0-4.6,0c-12.6-0.1-12.5-0.1-12.3-12.6
			c0.1-3.4,1-4.9,4.6-4.7c5.5,0.2,11.1,0.1,16.6,0.1c14.3,0,14.3,0,14.3,14.3c0,12,0,23.9,0,35.9c5.7,0,10.7,0,16.2,0
			c0-16.9,0-33.3,0-50.2c3.8,0,7.2,0.3,10.5-0.1c5.1-0.5,7,1.1,6.7,6.5c-0.4,8.9-0.1,17.8-0.1,26.7c5.7,0,10.6,0,16.2,0
			c0-5.7,0-11.2,0-17c5.9,0,11.2,0,16.6,0c0-10.9,0-21.3,0-32.3c-5.7,0-11,0-16.9,0c0-5.9,0-11.3,0-16.7c-5.6,0-10.5,0-15.9,0
			c0,4.1-0.3,7.8,0.1,11.5c0.4,4.4-1.5,5.6-5.6,5.4c-5.5-0.3-11.1-0.1-16.6-0.1c-12.4,0-12.1,0-12.4-12.6c-0.1-4.9,1.7-6.1,6.2-5.9
			c8.9,0.3,17.8,0.1,26.7,0.1c0-5.3,0-10,0-14.6c-22.2,0-43.9,0-65.8,0c0,4.9,0,9.5,0,14.6c4.5,0,8.8-0.3,13,0.2
			c1.4,0.2,3.6,2.2,3.8,3.6c1.5,14.5,0.7,15.2-13.8,14.7c-3.2-0.1-4.5-1.1-4.4-4.4c0.2-4.2,0-8.4,0-12.9c-10,0-19.1-0.2-28.2,0.1
			c-4.1,0.1-5.4-1.4-5.1-5.3c0.3-3.5,0.1-7,0.1-10.7C215.1,9.2,204.9,9.2,194.3,9.2z M377.9,125.9c39.4,0,78.3,0,117.2,0
			c0-39.1,0-77.7,0-116.5c-39.2,0-78.1,0-117.2,0C377.9,48.4,377.9,86.9,377.9,125.9z M9.2,126c39.1,0,77.7,0,116.4,0
			c0-39.1,0-77.9,0-116.6c-39.1,0-77.7,0-116.4,0C9.2,48.4,9.2,87,9.2,126z M125.5,496.4c0-39.1,0-77.9,0-116.6
			c-39,0-77.6,0-116.2,0c0,39,0,77.7,0,116.6C48.2,496.4,86.8,496.4,125.5,496.4z M159.9,464.6c0,5.5,0,10.6,0,16.1
			c5.7,0,11,0,16.9,0c0,5.5,0,10.6,0,15.6c45,0,89.2,0,133.7,0c0-10.7,0-21,0-31.5c-5.3,0-10.4,0-15.8,0c0,3.4,0,6.4,0,9.4
			c0,7.5,0,7.5-7.2,7.5c-7.3,0-14.7-0.3-22,0.1c-4.8,0.2-7-1-6.4-6.2c0.4-3.5,0.1-7.1,0.1-11.1c-4.1,0-7.6-0.2-11.1,0
			c-3.7,0.2-5.3-1-5-4.9c0.3-4,0.1-8.1,0.1-12.1c-11.4,0-22.1,0-33.4,0c0,5.7,0,11.2,0,17.1C192.8,464.6,176.4,464.6,159.9,464.6z
			 M190.1,315.2c7.2-1.9,13.2-3.2,19.1-5c7.8-2.4,15.1-4.5,23.5-0.2c5.3,2.7,12,3.3,18.1,3.5c30.3,0.9,60.3-21,63.2-57.4
			c3.5-43.1-37-73.3-74.6-64.7c-19,4.4-32.4,15.8-41.6,32.4c-6.9,12.4-9.6,26.1-5,39.8c4.6,13.7,5.6,26.8-0.2,40.2
			C191.2,307,191.1,310.6,190.1,315.2z M377.2,481.6c-5.4,0-10.5,0-16.1,0c0-11.8,0-23,0-34c-11.3,0-21.9,0-32.5,0
			c0,5.4,0,10.5,0,15.9c5.4,0,10.3,0,15.6,0c0,6.2,0,12,0,18.3c-5.4,0-10.5,0-15.5,0c0,5.3,0,10,0,14.5c16.4,0,32.4,0,48.7,0
			C377.2,491.5,377.2,487.1,377.2,481.6z M479.5,210.7c0,5.9,0,11.2,0,17.1c-5.9,0-11.3,0-16.7,0c0,5.9,0,11.2,0,17.1
			c5.8,0,11.2,0,17.1,0c0,5.6,0,10.5,0,15.5c5.3,0,10.2,0,15.2,0c0-16.8,0-33.2,0-49.8C489.9,210.7,485.1,210.7,479.5,210.7z
			 M193.2,414.3c-11.6,0-22.5,0-33.4,0c0,5,0,9.6,0,14.8c5.7,0,11.1,0,17,0c0,5.9,0,11.2,0,16.7c5.7,0,10.9,0,16.4,0
			C193.2,435.1,193.2,424.8,193.2,414.3z M326.9,110.6c-5.4,0-10,0-14.5,0c0,10.8,0,21.2,0,31.6c10.7,0,21,0,31.3,0
			c0-5.1,0-9.8,0-14.9c-5.7,0-11,0-16.8,0C326.9,121.5,326.9,116.1,326.9,110.6z M326.6,227.1c0-16.4,0-32.5,0-48.7
			c-5,0-9.7,0-14.6,0c0,4.9,0.1,9.4,0,13.8c-0.4,10.9-0.3,21.5,6.3,31.2C320.6,226.9,322.4,228.2,326.6,227.1z M141.6,159.4
			c0-5.6,0-10.9,0-16.2c-11,0-21.7,0-32.3,0c0,5.6,0,10.7,0,16.2C120.1,159.4,130.6,159.4,141.6,159.4z M310.4,176.8
			c0-11.3,0-22.1,0-32.9c-5.4,0-10.3,0-15.2,0c0,11.1,0,21.9,0,32.9C300.4,176.8,305.2,176.8,310.4,176.8z M9.2,361.8
			c10.9,0,21.2,0,31.5,0c0-5.4,0-10.5,0-15.4c-10.7,0-21.1,0-31.5,0C9.2,351.7,9.2,356.6,9.2,361.8z M109.4,346.2
			c0,5.7,0,10.9,0,16.3c5.6,0,10.8,0,16.2,0c0-5.6,0-10.9,0-16.3C120.1,346.2,115,346.2,109.4,346.2z M125.6,192.8
			c0-5.3,0-10.2,0-15.3c-5.6,0-10.8,0-16.2,0c0,5.3,0,10.2,0,15.3C114.8,192.8,119.9,192.8,125.6,192.8z M142.7,9.3
			c0,5.4,0,10.1,0,15c5.6,0,10.8,0,16.1,0c0-5.3,0-10.2,0-15C153.2,9.3,148.1,9.3,142.7,9.3z M345.5,126c5.4,0,10.4,0,15.4,0
			c0-5.4,0-10.4,0-15.5c-5.3,0-10.2,0-15.4,0C345.5,115.8,345.5,120.7,345.5,126z M142.5,462.8c5.2,0,10.3,0,15.6,0
			c0-5.2,0-10.1,0-15.2c-5.3,0-10.3,0-15.6,0C142.5,452.8,142.5,457.6,142.5,462.8z M276.1,463.1c0-5.6,0-10.5,0-15.4
			c-5.4,0-10.5,0-15.3,0c0,5.4,0,10.3,0,15.4C266.1,463.1,271,463.1,276.1,463.1z M142.7,481.9c0,5.2,0,9.7,0,14.5
			c5.3,0,10.2,0,15.3,0c0-5,0-9.6,0-14.5C152.8,481.9,147.9,481.9,142.7,481.9z M345.5,23.7c5.3,0,10.4,0,15.3,0c0-5,0-9.7,0-14.2
			c-5.4,0-10.3,0-15.3,0C345.5,14.4,345.5,18.9,345.5,23.7z M494.3,496.4c0-5.2,0-9.8,0-14.3c-5,0-9.7,0-14.3,0c0,5,0,9.5,0,14.3
			C484.9,496.4,489.4,496.4,494.3,496.4z M276.2,320.3c-4.9,0.9-9.6,1.6-14.1,2.7c-0.9,0.2-2,2-2,3c0,0.9,1.5,2.5,2.4,2.5
			c4.6,0.3,9.1,0.1,13.8,0.1C276.2,325.4,276.2,323,276.2,320.3z M276.3,177.7c-5.4,0-10.5,0-15.6,0c-0.1,0.7-0.3,1.3-0.4,2
			c5.2,1.4,10.4,2.7,16,4.2C276.3,181.2,276.3,179.5,276.3,177.7z"/>
		<path d="M411.8,177.1c16.9,0,33.8,0,50.6,0l-0.2-0.2c0,5.2,0,10.3,0,16c-5.8,0-11.1,0-17.1,0c0,5.9,0,11.4,0,17.3
			c-11.3,0-22,0-33,0c0,17.1,0,33.6,0,50.7c5.4,0,10.7,0,16.4,0c0,5.8,0,11,0,17c-5.3,0-10.7,0-16.7,0c0,6,0,11.3,0,17.1
			c-5.8,0-11.1,0-17.1,0c0,11.3,0,22.1,0,33.5c-6,0-11.3,0-17,0c0,6,0,11.4,0,17.4c22.1,0,44.2,0,67,0c0,5.9,0,11.4,0,17.7
			c6.3,0,12,0,17.7,0l-0.2-0.2c0,5,0,10,0,15.6c-11.3,0-22,0-33,0c0,11.8,0,23,0,34.9c5,0,10.1,0,15.6,0c0,5.6,0,10.6,0,15.9
			c5.9,0,11.4,0,17.2,0c0-5,0-9.9,0-15.3c11.2,0,21.9,0,33,0c0,4.8,0,9.4,0,14.8c-5,0-10,0-15.4,0c0,6.3,0,11.8,0,17.9
			c5,0,10,0,15.4,0c0,5.6,0,10.5,0,15.9c-10.8,0-21.4,0-32.5,0c0-5.4,0-10.7,0-16.4c-11.2,0-22.1,0-33.3,0c0,5.7,0,11.5,0,17.7
			c4.9,0,9.9,0,15.2,0c0,5.5,0,10.6,0,16.2c-5.1,0-10,0-15.4,0c0,5.4,0,10.4,0,15.8c-5.8,0-11,0-17,0c0-4.9,0-10,0-15.5
			c-6,0-11.3,0-16.9,0c0-5.4,0-10.3,0-15.9c5.2,0,10.6,0,16.4,0c0-12,0-23.4,0-34.9c-11.4,0-22.6,0-34.3,0c0,5.4,0,10.6,0,16
			c-5.4,0-10.3,0-15.7,0c0-5.5,0-10.9,0-16.5c-17,0-33.6,0-50.8,0c0,5.4,0,10.9,0,16.6c-5.6,0-10.5,0-15.8,0c0-10.4,0-20.8,0-32
			c4.1,0,8.3-0.1,12.5,0c3.2,0.1,4.5-1.1,4.4-4.4c-0.5-17,3.1-13.7-14.6-13.8c-1.2,0-3.4,2.3-3.5,3.7c-0.5,4.2-0.2,8.5-0.2,13.3
			c-10,0-19.4,0.2-28.9-0.1c-4.2-0.1-5.7,1-5.6,5.4c0.3,9.1,0.1,18.2,0.1,27.7c-5,0-9.6,0-15,0c0-4-0.2-8,0.1-12.1
			c0.2-3.9-1.3-5-5-4.9c-9.6,0.2-19.2,0.1-29.2,0.1c0-16.6,0-32.7,0-49.3c-16.9,0-33.4,0-50.9,0c0,4-0.2,8.2,0.1,12.4
			c0.2,3.3-1.2,4.5-4.4,4.3c-3.9-0.2-7.8,0-12.1,0c0-16.8,0-33.2,0-50.1c5.6,0,11.1,0,16.6,0c0,5.6,0,11.3,0,16.8
			c11.9,0,23,0,34.2,0c0-5.8,0-11.2,0-17.1c-11.5,0-22.7,0-33.9,0c-0.1-5.7-0.1-11.4-0.2-17.1c5.6,0,11.2,0,17,0c0-6,0-11.4,0-17.1
			c-5.7,0-11.1,0-16.9,0c0,5.9,0,11.5,0,17.2c-16.5,0-33,0-50.4,0c0-6.1,0-11.8,0-17.4c0,0-0.2,0.2-0.2,0.2c11.1,0,22.2,0,33.5,0
			c0-6,0-11.2,0-16.3c0,0-0.2,0.2-0.2,0.2c5.6,0,11.2,0,17.4,0c0-6.2,0-11.8,0-17.4c0,0-0.2,0.2-0.2,0.2c5.8,0,11.6,0,17.4,0
			l-0.2-0.2c0,5.5,0,11.1,0,17c2.4,0.2,4.7,0.4,7.7,0.7c-1,4.1-1.8,8-2.8,11.8c-1.3,4.9-1.4,9.5,2.5,13.5c4,4,8.6,4.2,13.8,2.6
			c7.1-2.1,14.4-3.8,21.6-5.6c5.9-1.5,7.3-0.4,7.5,5.6c0,1.6,0.2,3.1,0.4,5.2c5.4,0,10.5,0,15.9,0c0,11.2,0,21.9,0,32.9
			c-5,0-9.9,0-15.5,0c0-4.9,0-10,0-15.5c-6.1,0-11.7,0-17.6,0c0,5.6,0,11,0,17c5.4,0,10.5,0,16,0c0,5.5,0,10.5,0,16
			c11.2,0,22,0,33.2,0c0,5.9,0,11.2,0,17.3c5.5,0,10.6,0.2,15.7-0.2c1-0.1,2.6-2.3,2.7-3.6c0.2-9,0.3-17.9,0-26.9
			c0-1.3-2.3-3.5-3.7-3.7c-4.2-0.5-8.5-0.2-13-0.2c0-5.4,0-10.4,0-15.7c16.5,0,33,0,49.8,0c0,5.4,0,10.6,0,16.5
			c-5.6,0-10.9,0-16.5,0c0,5.6,0,10.7,0,16.3c10.7,0,21.4,0,32.7,0c0,5.8,0,11.3,0,17.4c5.5,0,10.5,0.2,15.4-0.2
			c1.1-0.1,2.1-2.1,3.2-3.2c0.1-0.1,0-0.3,0-0.5c1.1-14.3,1.1-14.3-13.1-14.4c-1.1,0-2.1,0-3.6,0c0-4.9,0-9.6,0-14.9
			c5,0,10.1,0,15.5,0c0-6,0-11.5,0-17.5c-5.4,0-10.7,0-17,0c0-6.1,0-11.5,0-17c0,0-0.2,0.2-0.2,0.2c11.3,0,22.5,0,34.4,0
			c0-11.3,0-22.1,0-33.4c5.6,0,10.5,0,15.9,0c0-5.9,0-11.4,0-17.5c-4.9,0-9.9,0-15.3,0c0-6,0-11.2,0-17c10.8,0,21.5,0,32.5,0
			c0-5.6,0-10.7,0-16.2c-5.3,0-10.6,0-16.5,0c0-5.9,0-11.3,0-17.6c-6,0-11.3,0-16.6,0l0.2,0.2c0-5.5,0-11.1,0-17.1
			c-5.6,0-10.9,0-16.9,0c0-11.3,0-22.1,0-33.5c-5.8,0-10.8,0-16.2,0c0-5.5,0-10.4,0-16.2c4.1,0,8.4-0.1,12.6,0
			c3.3,0.1,4.5-1.2,4.4-4.4c-0.2-4.1,0-8.2,0-12.5c5.4,0,10.3,0,15.8,0c0,16.2,0,32.4,0,49.3c5.9,0,11.2,0,16.5,0l-0.2-0.2
			c0,5.6,0,11.3,0,17c6.1,0,11.7,0,17.4,0c0-6,0-11.5,0-17l-0.2,0.2c5.6,0,11.2,0,17.4,0c0-5.8,0-11,0-16.3
			C412,176.9,411.8,177.1,411.8,177.1z M411.7,413.6c0-17,0-33.6,0-50.3c-16.9,0-33.4,0-50,0c0,17,0,33.5,0,50.3
			C378.4,413.6,394.8,413.6,411.7,413.6z M244.3,405.1c0-9.6,0-9.6-7.2-9.5c-11.5,0.1-11.2-1.6-11.1,7.2c0.1,11.7-1.6,11.2,7.2,11.1
			C245.6,413.7,244.2,415.5,244.3,405.1z"/>
		<path d="M159.4,227.7c5.5,0,11.1,0,17.1,0c0-11.4,0-22.5,0-34.2c5.9,0,11.3,0,17.1,0c0-5.8,0-10.9,0-16.4c-5.4,0-10.7,0-16.7,0
			c0-11.6,0-22.8,0-34.4c-5.9,0-11.2,0-16.9,0c0-5.2,0-9.9,0-15c5.4,0,10.7,0,16.4,0c0-6.2,0-12,0-18.2c-5.5,0-10.9,0-16.9,0
			c0,5.4,0,10.7,0,16.4c-5.8,0-11,0-16.7,0c0-10.7,0-21.5,0-32.8c5.4,0,10.7,0,16.4,0c0-11.6,0-22.8,0-34.5c-5.4,0-10.7,0-16.4,0
			c0-5.5,0-10.6,0-16.1c11.2,0,22.2,0,33.7,0c0-5.8,0-11.1,0-16.9c5.5,0,10.6,0,16.3,0c0,9.4,0.2,18.9-0.1,28.3
			c-0.2,4.6,1.5,6.1,5.9,5.7c3.2-0.3,6.4-0.1,10-0.1c0,10.8,0,21.2,0,32c-4.7,0-9.3,0-14.4,0c0-5.2,0-10.3,0-15.9
			c-6,0-11.4,0-17.3,0c0,5.5,0,11.1,0,17.1c5.2,0,10.1,0,15.9,0c0,8.5-0.1,16.7,0,24.9c0.1,11-1.4,9.7,9.7,9.7c7.5,0,7.5,0,7.5-7.6
			c0-3,0-6,0-9.3c5.5,0,10.4,0,16,0c0,9.1,0.2,18.2-0.1,27.3c-0.1,4.4,1.2,5.9,5.7,5.9c12.7-0.2,12.7,0,12.7-12.8
			c0-6.6,0-13.2,0-20.3c5,0,9.7,0,15,0c0,4,0.3,7.9-0.1,11.8c-0.5,5.4,3,5.9,6.4,4.9c4-1.3,11.3,4.8,12-4.7c0.3-3.9,0-7.8,0-12.1
			c5.4,0,10.3,0,15.6,0c0,10.4,0,20.8,0,31.7c-11.1,0-22.1,0-33.8,0c0,11.6,0,22.8,0,34.3c-10.9,0-21.2,0-32.2,0
			c0-5.4,0-10.8,0-16.7c-5.9,0-11.2,0-17.1,0c0-5.9,0-11.3,0-17.1c-6,0-11.5,0-17.5,0c0,5.1-0.2,9.9,0.2,14.6
			c0.1,1.2,2.2,3.1,3.6,3.2c3.9,0.4,7.8,0.2,12.3,0.2c0,4.6,0.1,8.9,0,13.1c-0.1,3,1.2,4.2,4.1,4.1c4.1-0.1,8.2,0,12.5,0
			c1.4,4.5,0.7,7-3.9,9.3c-22.5,11.1-35.7,29.2-39.9,54.1c-0.3,1.7-2.8,3.1-5.1,5.5c0,3.8,0,8.9,0,14.1l0.2-0.2
			c-5.8,0-11.5,0-17.4,0c0,6.4,0,11.9,0,17.4c0,0,0.2-0.2,0.2-0.2c-5.8,0-11.6,0.1-17.3,0.1c0-5.7,0-11.3,0-17c-11.4,0-22.2,0-33,0
			c0,5.8,0,11.3,0,16.9c11.3,0,22.2,0,33.1,0c0,5.8-0.1,11.6-0.1,17.4c0,0,0.2-0.2,0.2-0.2c-11.1,0-22.2,0-33.5,0c0,6,0,11.2,0,16.3
			c0,0,0.2-0.2,0.2-0.2c-5.8,0-11.6,0-17.4-0.1l0.2,0.2c0-11,0-22,0-33.1c-11.4,0-22.3,0-33.5,0c0,6,0,11.5,0,17l0.2-0.2
			c-11.2,0-22.4,0-34.1,0c0-11.7,0-22.7,0-34.3c-5.2,0-10,0-15,0c0-11.2,0-21.9,0-33.1c4.6,0,9.4,0,14.8,0c0-6,0-11.4,0-17.5
			c6.2,0,11.7,0,17.1,0c0,0-0.2-0.2-0.2-0.2c0,11.4,0,22.8,0,34.2c39.8,0,78.9,0,118.4,0c0-5.9,0-11.5,0-17L159.4,227.7z"/>
		<path d="M194.3,9.2c10.7,0,20.8,0,31.7,0c0,3.7,0.2,7.2-0.1,10.7c-0.3,3.9,1.1,5.4,5.1,5.3c9.1-0.2,18.2-0.1,28.2-0.1
			c0,4.5,0.1,8.7,0,12.9c-0.1,3.3,1.2,4.3,4.4,4.4c14.5,0.5,15.3-0.2,13.8-14.7c-0.1-1.4-2.3-3.4-3.8-3.6c-4.2-0.5-8.5-0.2-13-0.2
			c0-5.1,0-9.7,0-14.6c21.9,0,43.6,0,65.8,0c0,4.6,0,9.3,0,14.6c-9,0-17.9,0.2-26.7-0.1c-4.5-0.2-6.3,1-6.2,5.9
			c0.2,12.5,0,12.6,12.4,12.6c5.5,0,11.1-0.2,16.6,0.1c4.1,0.2,6-1,5.6-5.4c-0.3-3.7-0.1-7.5-0.1-11.5c5.4,0,10.3,0,15.9,0
			c0,5.4,0,10.8,0,16.7c5.9,0,11.2,0,16.9,0c0,10.9,0,21.4,0,32.3c-5.4,0-10.7,0-16.6,0c0,5.9,0,11.3,0,17c-5.6,0-10.5,0-16.2,0
			c0-8.9-0.3-17.8,0.1-26.7c0.3-5.4-1.7-7-6.7-6.5c-3.3,0.4-6.7,0.1-10.5,0.1c0,16.9,0,33.3,0,50.2c-5.5,0-10.5,0-16.2,0
			c0-12,0-24,0-35.9c0-14.3,0-14.3-14.3-14.3c-5.5,0-11.1,0.2-16.6-0.1c-3.6-0.1-4.6,1.3-4.6,4.7c-0.2,12.5-0.3,12.5,12.3,12.6
			c1.4,0,2.8,0,4.6,0c0,11,0,21.7,0,32.9c-4.9,0-9.9,0-15.6,0c0-5.3,0-10.8,0-16.7c-11.3,0-21.9,0-33,0c0-5.5,0-10.6,0-16.2
			c3.5,0,6.8-0.3,10.2,0.1c5,0.5,7.1-1,6.8-6.5c-0.5-7.3-0.4-14.7,0-22.1c0.2-4.6-1.1-6.4-5.9-6.2c-9.3,0.4-18.5,0.1-28.5,0.1
			c0-4.6-0.1-8.9,0-13.1c0.1-3-1-4.3-4.1-4.2c-3.7,0.1-7.5,0-11.7,0C194.3,19.1,194.3,14.4,194.3,9.2z"/>
		<path d="M377.9,125.9c0-39,0-77.5,0-116.5c39.1,0,78,0,117.2,0c0,38.8,0,77.4,0,116.5C456.1,125.9,417.3,125.9,377.9,125.9z
			 M479.3,110c0-28.5,0-56.6,0-84.8c-28.3,0-56.3,0-84.4,0c0,28.5,0,56.5,0,84.8C423.1,110,451,110,479.3,110z"/>
		<path d="M9.2,126c0-39,0-77.6,0-116.6c38.7,0,77.3,0,116.4,0c0,38.7,0,77.5,0,116.6C86.8,126,48.2,126,9.2,126z M24.2,109.8
			c28.5,0,56.4,0,84.5,0c0-28.5,0-56.5,0-84.6c-28.3,0-56.3,0-84.5,0C24.2,53.6,24.2,81.5,24.2,109.8z"/>
		<path d="M125.5,496.4c-38.7,0-77.3,0-116.2,0c0-38.9,0-77.5,0-116.6c38.6,0,77.2,0,116.2,0C125.5,418.5,125.5,457.3,125.5,496.4z
			 M24.2,481.3c28.5,0,56.5,0,84.5,0c0-28.4,0-56.5,0-84.7c-28.3,0-56.3,0-84.5,0C24.2,425,24.2,453,24.2,481.3z"/>
		<path d="M159.9,464.6c16.5,0,32.9,0,49.9,0c0-5.9,0-11.3,0-17.1c11.3,0,21.9,0,33.4,0c0,4,0.2,8.1-0.1,12.1
			c-0.2,3.9,1.4,5.1,5,4.9c3.5-0.2,7.1,0,11.1,0c0,4,0.3,7.6-0.1,11.1c-0.6,5.2,1.6,6.5,6.4,6.2c7.3-0.4,14.7-0.1,22-0.1
			c7.2,0,7.2,0,7.2-7.5c0-3,0-6,0-9.4c5.4,0,10.5,0,15.8,0c0,10.5,0,20.8,0,31.5c-44.5,0-88.8,0-133.7,0c0-5,0-10.1,0-15.6
			c-5.9,0-11.2,0-16.9,0C159.9,475.2,159.9,470.1,159.9,464.6z"/>
		<path d="M190.1,315.2c1-4.6,1.1-8.3,2.5-11.4c5.8-13.5,4.8-26.5,0.2-40.2c-4.6-13.7-1.9-27.4,5-39.8c9.2-16.6,22.6-28,41.6-32.4
			c37.7-8.7,78.1,21.5,74.6,64.7c-3,36.3-33,58.3-63.2,57.4c-6.1-0.2-12.9-0.8-18.1-3.5c-8.3-4.3-15.6-2.2-23.5,0.2
			C203.3,312,197.3,313.3,190.1,315.2z M205.9,299.6c4.6-1.2,7.9-1.7,11.1-2.8c5-1.7,9.4-1.3,14.3,1.1c5,2.5,10.6,4.3,16.1,4.9
			c30.1,2.9,55-20.8,55.7-48.9c0.8-32.8-30.1-60.7-66-49.5c-29.2,9.2-44.7,43.1-28.8,71.9c2.1,3.8,2.5,7.1,1,11
			C208,290.9,207.2,294.7,205.9,299.6z"/>
		<path d="M58.3,177.1c5.5,0,11.1,0,17.3,0c0-5.6,0-11.1,0-16.8c5.6,0,10.5,0,16,0c0,16.8,0,33.2,0,49.9c17,0,33.4,0,50.5,0
			c0-5.4,0-10.8,0-16.6c5.9,0,11.2,0,17.2,0c0,11.6,0,22.8,0,34.1c0,0,0.2-0.2,0.2-0.2c-33.5,0-67,0-101.1,0c0-6.1,0-11.5,0-17.2
			c-6.2,0-11.7,0-17.2,0c0,0,0.2,0.2,0.2,0.2c0-5.8,0-11.6,0.1-17.5c0,0-0.2,0.2-0.2,0.2c5.6,0,11.3,0,17.4,0c0-5.8,0-11,0-16.3
			L58.3,177.1z"/>
		<path d="M91.7,311.4c0,5.5,0,11,0,17c-5.5,0-10.5,0-15.9,0c0,11.5,0,22.6,0,34c-5.8,0-11,0-16.8,0c0-11,0-22,0-33.8
			c-17,0-33.5,0-50.4,0c0-6,0-11.3,0-17c16.6,0,33,0,50,0c0-5.8,0-11.1,0-16.4c0,0-0.2,0.2-0.2,0.2c5.6,0,11.2,0,17.4,0
			c0,5.8,0,10.8,0,16.2c5.8,0,10.9,0,16,0L91.7,311.4z"/>
		<path d="M377.2,481.6c0,5.5,0,9.9,0,14.7c-16.2,0-32.2,0-48.7,0c0-4.6,0-9.3,0-14.5c5,0,10.1,0,15.5,0c0-6.3,0-12.1,0-18.3
			c-5.2,0-10.2,0-15.6,0c0-5.4,0-10.5,0-15.9c10.6,0,21.3,0,32.5,0c0,11.1,0,22.2,0,34C366.7,481.6,371.8,481.6,377.2,481.6z"/>
		<path d="M24,159.8c5.5,0,11,0,17.3,0c0-5.6,0-11,0-16.7c6,0,11.2,0,17,0c0,11.5,0,22.7,0,33.9c0,0,0.2-0.2,0.2-0.2
			c-5.6,0-11.2,0-17.4,0c0,5.8,0,11.1,0,16.3c0,0,0.2-0.2,0.2-0.2c-10.9,0-21.7,0-32.9,0c0-5.3,0-10,0-15.6c5,0,10.1,0,15.7,0
			c0-6.4,0-12.1,0-17.8L24,159.8z"/>
		<path d="M445.4,311.6c0-5.2,0-10.3,0-15.9c11.3,0,22.3,0,34,0c0-5.9,0-11.3,0-17.1c5.5,0,10.4,0,15.7,0c0,16.4,0,32.8,0,49.6
			c-5,0-9.9,0-15.3,0c0-5.4,0-10.7,0-16.8c-11.8,0-23.2,0-34.6,0L445.4,311.6z"/>
		<path d="M377.6,193.2c0-10.9,0-21.7,0-33.1c5.9,0,11.2,0,17.1,0c0-5.9,0-11.3,0-17c6,0,11.2,0,17.1,0c0,11.5,0,22.8,0,34
			c0,0,0.2-0.2,0.2-0.2c-5.7,0-11.5,0-17.4,0c0,6.1,0,11.2,0,16.3l0.2-0.2c-5.8,0-11.6,0-17.4,0L377.6,193.2z"/>
		<path d="M479.5,210.7c5.6,0,10.4,0,15.6,0c0,16.6,0,33,0,49.8c-4.9,0-9.8,0-15.2,0c0-4.9,0-9.9,0-15.5c-5.8,0-11.3,0-17.1,0
			c0-5.9,0-11.2,0-17.1c5.4,0,10.8,0,16.7,0C479.5,221.9,479.5,216.6,479.5,210.7z"/>
		<path d="M462.4,177.1c0.1-5.8,0.1-11.6,0.2-17.5l-0.2,0.2c5.5,0,11,0,17.1,0c0-5.4,0-10.5,0-15.9c5.1,0,9.7,0,14.7,0
			c0,16.1,0,32.3,0,48.9c-4.6,0-9.2,0-14.4,0c0-5,0-10.1,0-15.9c-6.3,0-11.9,0-17.6,0C462.3,176.9,462.4,177.1,462.4,177.1z"/>
		<path d="M326.8,295.4c0,11.2,0.1,22.5,0.1,33.7c0,0,0.2-0.2,0.2-0.2c-10.5,0-21,0-32.2,0c0-6.3-0.1-12,0.1-17.6c0-1,1.2-2,2-2.8
			c1-1,2.5-1.6,3.2-2.8c6.5-9.9,16-11.8,26.9-10.2C327,295.5,326.8,295.4,326.8,295.4z"/>
		<path d="M193.2,414.3c0,10.5,0,20.8,0,31.5c-5.5,0-10.7,0-16.4,0c0-5.5,0-10.8,0-16.7c-5.8,0-11.2,0-17,0c0-5.2,0-9.8,0-14.8
			C170.7,414.3,181.7,414.3,193.2,414.3z"/>
		<path d="M326.9,110.6c0,5.6,0,10.9,0,16.7c5.7,0,11,0,16.8,0c0,5.1,0,9.9,0,14.9c-10.3,0-20.6,0-31.3,0c0-10.3,0-20.8,0-31.6
			C317,110.6,321.5,110.6,326.9,110.6z"/>
		<path d="M326.6,227.1c-4.2,1.1-6-0.2-8.4-3.6c-6.6-9.7-6.6-20.3-6.3-31.2c0.2-4.5,0-8.9,0-13.8c4.9,0,9.6,0,14.6,0
			C326.6,194.6,326.6,210.7,326.6,227.1z"/>
		<path d="M445.2,311.4c0,5.5,0,11,0,16.8c-11.3,0-21.9,0-32.9,0c0-5.4,0-10.7,0-16.6c11.1,0,22.1,0,33,0
			C445.4,311.6,445.2,311.4,445.2,311.4z"/>
		<path d="M141.6,159.4c-11,0-21.5,0-32.3,0c0-5.4,0-10.6,0-16.2c10.6,0,21.2,0,32.3,0C141.6,148.5,141.6,153.8,141.6,159.4z"/>
		<path d="M310.4,176.8c-5.2,0-10,0-15.2,0c0-10.9,0-21.7,0-32.9c4.9,0,9.9,0,15.2,0C310.4,154.6,310.4,165.4,310.4,176.8z"/>
		<path d="M479.5,363.6c5.1,0,10.2,0,15.7,0c0,10.7,0,21.2,0,32.1c-4.9,0-9.8,0-15.5,0c0-10.7,0-21.5,0-32.3
			C479.6,363.4,479.5,363.6,479.5,363.6z"/>
		<path d="M9.2,361.8c0-5.2,0-10.2,0-15.4c10.5,0,20.8,0,31.5,0c0,5,0,10,0,15.4C30.5,361.8,20.2,361.8,9.2,361.8z"/>
		<path d="M327,295.5c0-5.5,0-11,0-16.9c6,0,11.2,0,16.8,0c0,5.3,0,10.6,0,16.7c-5.7,0-11.3,0-17,0C326.8,295.4,327,295.5,327,295.5
			z"/>
		<path d="M361.4,227.4c0,5.5,0,11,0,17.2c-6,0-11.6,0-17.2,0l0.2,0.2c0-5.4,0-10.9,0-17.2c6.1,0,11.6,0,17.2,0
			C361.6,227.6,361.4,227.4,361.4,227.4z"/>
		<path d="M462.5,363.5c0-5.5,0-11.1,0-17c5.5,0,10.9,0,17,0c0,5.8,0,11.4,0,17.1c0,0,0.2-0.2,0.2-0.2c-5.8,0-11.5,0-17.3-0.1
			C462.3,363.3,462.5,363.5,462.5,363.5z"/>
		<path d="M109.4,346.2c5.6,0,10.7,0,16.2,0c0,5.4,0,10.7,0,16.3c-5.3,0-10.5,0-16.2,0C109.4,357.2,109.4,352,109.4,346.2z"/>
		<path d="M462.6,159.6c-5.5,0-11,0-17,0c0-5.5,0-10.8,0-16.5c5.3,0,10.5,0,16.8,0c0,5.7,0,11.2,0,16.6
			C462.4,159.8,462.6,159.6,462.6,159.6z"/>
		<path d="M125.6,192.8c-5.7,0-10.8,0-16.2,0c0-5.1,0-10,0-15.3c5.4,0,10.7,0,16.2,0C125.6,182.6,125.6,187.5,125.6,192.8z"/>
		<path d="M142.7,9.3c5.4,0,10.5,0,16.1,0c0,4.9,0,9.7,0,15c-5.2,0-10.5,0-16.1,0C142.7,19.5,142.7,14.7,142.7,9.3z"/>
		<path d="M344.2,244.6c0,5.2,0,10.3,0,15.9c-5.3,0-10.2,0-15.6,0c0-4.8,0-9.9,0-15.7c5.2,0,10.5,0,15.8,0
			C344.4,244.8,344.2,244.6,344.2,244.6z"/>
		<path d="M345.5,126c0-5.3,0-10.3,0-15.5c5.2,0,10.1,0,15.4,0c0,5.1,0,10.1,0,15.5C355.9,126,351,126,345.5,126z"/>
		<path d="M142.5,462.8c0-5.3,0-10.1,0-15.2c5.2,0,10.3,0,15.6,0c0,5.1,0,10,0,15.2C152.8,462.8,147.7,462.8,142.5,462.8z"/>
		<path d="M276.1,463.1c-5.2,0-10.1,0-15.3,0c0-5.1,0-10,0-15.4c4.9,0,9.9,0,15.3,0C276.1,452.5,276.1,457.5,276.1,463.1z"/>
		<path d="M142.7,481.9c5.2,0,10.1,0,15.3,0c0,4.8,0,9.5,0,14.5c-5.1,0-10,0-15.3,0C142.7,491.7,142.7,487.1,142.7,481.9z"/>
		<path d="M345.5,23.7c0-4.7,0-9.3,0-14.2c5,0,9.9,0,15.3,0c0,4.5,0,9.2,0,14.2C355.9,23.7,350.8,23.7,345.5,23.7z"/>
		<path d="M24.2,159.7c-4.8,0-9.6,0-14.8,0c0-5.2,0-10.3,0-15.7c4.6,0,9.3,0,14.6,0c0,5.3,0,10.6,0,15.9
			C24,159.8,24.2,159.7,24.2,159.7z"/>
		<path d="M494.3,496.4c-4.9,0-9.4,0-14.3,0c0-4.8,0-9.3,0-14.3c4.6,0,9.3,0,14.3,0C494.3,486.7,494.3,491.2,494.3,496.4z"/>
		<path d="M276.2,320.3c0,2.7,0,5.1,0,8.3c-4.7,0-9.2,0.1-13.8-0.1c-0.9-0.1-2.4-1.6-2.4-2.5c0-1,1.1-2.8,2-3
			C266.7,321.8,271.3,321.1,276.2,320.3z"/>
		<path d="M176.5,261c1.6,0.1,3.1,0.1,4.6,0.2c1.4,5.6,2.7,10.8,4.2,16.8c-3.3,0-6.1,0-8.8,0c0,0,0.2,0.2,0.2,0.2
			c0-5.8,0-11.6,0-17.4L176.5,261z"/>
		<path d="M276.3,177.7c0,1.8,0,3.5,0,6.2c-5.7-1.5-10.8-2.8-16-4.2c0.1-0.7,0.3-1.3,0.4-2C265.8,177.7,270.9,177.7,276.3,177.7z"/>
		<path class="st0" d="M411.7,413.6c-16.9,0-33.3,0-50,0c0-16.8,0-33.4,0-50.3c16.6,0,33.2,0,50,0
			C411.7,380,411.7,396.6,411.7,413.6z M394.3,379.9c-5.7,0-11,0-16.2,0c0,5.6,0,10.7,0,15.9c5.7,0,10.9,0,16.2,0
			C394.3,390.2,394.3,385.1,394.3,379.9z"/>
		<path class="st0" d="M159.6,345.8c11.2,0,22.4,0,33.9,0c0,5.8,0,11.3,0,17.1c-11.2,0-22.3,0-34.2,0c0-5.6,0-11.2,0-16.8
			C159.4,346.1,159.6,345.8,159.6,345.8z"/>
		<path class="st0" d="M108.9,311.6c0-5.2,0-10.3,0-16.3c11.3,0,22.4,0,33.5,0c0,5.1,0,10.3,0,16.3
			C131,311.6,119.9,311.6,108.9,311.6z"/>
		<path class="st0" d="M244.3,405.1c-0.1,10.4,1.2,8.7-11.1,8.8c-8.8,0.1-7.1,0.6-7.2-11.1c-0.1-8.8-0.4-7.1,11.1-7.2
			C244.3,395.5,244.3,395.5,244.3,405.1z"/>
		<path class="st0" d="M176.7,260.9c0,5.8,0,11.6,0,17.4c-5.8,0-11.6,0-17.4,0c0-5.5,0-11,0-17.4
			C165.2,260.9,170.9,260.9,176.7,260.9z"/>
		<path class="st0" d="M142.2,278.2c5.8,0,11.6-0.1,17.3-0.1c0,5.6,0,11.2,0,17.4c-6.2,0-11.8,0-17.4,0c0-5.8,0.1-11.6,0.1-17.4
			C142.3,278.1,142.2,278.2,142.2,278.2z"/>
		<path class="st0" d="M377.4,193c5.8,0,11.6,0,17.4,0c0,5.5,0,11,0,17c-5.7,0-11.2,0-17.4,0C377.4,204.3,377.4,198.7,377.4,193z"/>
		<path class="st0" d="M159.5,328.8c0-5.6,0-11.3,0-17.2c5.7,0,11.1,0,16.9,0c0,5.6,0,11.1,0,17.1c-5.7,0-11.4,0-17,0
			C159.4,328.7,159.5,328.8,159.5,328.8z"/>
		<path class="st0" d="M394.6,193.2c0-5.1,0-10.2,0-16.3c5.9,0,11.6,0,17.4,0c0,5.3,0,10.6,0,16.3
			C405.8,193.2,400.2,193.2,394.6,193.2z"/>
		<path class="st0" d="M41.2,210.2c5.5,0,11,0,17.2,0c0,5.7,0,11.1,0,17.2c34.2,0,67.6,0,101.1,0c0,5.5,0,11.1,0,17
			c-39.4,0-78.5,0-118.4,0C41.2,233.1,41.2,221.7,41.2,210.2z"/>
		<path class="st0" d="M91.8,311.6c-5.1,0-10.3,0-16,0c0-5.3,0-10.4,0-16.2c-6.2,0-11.8,0-17.4,0c0-5.5,0-11,0-17
			c11.2,0,22.1,0,33.5,0C91.8,289.6,91.8,300.6,91.8,311.6z"/>
		<path class="st0" d="M142.3,278.1c-10.9,0-21.8,0-33.1,0c0-5.6,0-11.1,0-16.9c10.8,0,21.6,0,33,0c0,5.7,0,11.3,0,17
			C142.2,278.2,142.3,278.1,142.3,278.1z"/>
		<path class="st0" d="M479.3,110c-28.3,0-56.2,0-84.4,0c0-28.3,0-56.4,0-84.8c28.1,0,56.1,0,84.4,0
			C479.3,53.4,479.3,81.5,479.3,110z M461.7,91.7c0-16.6,0-32.8,0-48.8c-16.8,0-33.1,0-49.4,0c0,16.5,0,32.5,0,48.8
			C428.9,91.7,445.1,91.7,461.7,91.7z"/>
		<path class="st0" d="M24.2,109.8c0-28.3,0-56.2,0-84.6c28.1,0,56.1,0,84.5,0c0,28.1,0,56.1,0,84.6
			C80.7,109.8,52.7,109.8,24.2,109.8z M91.2,91.6c0-16.6,0-32.8,0-48.8c-16.8,0-33.1,0-49.4,0c0,16.5,0,32.5,0,48.8
			C58.3,91.6,74.6,91.6,91.2,91.6z"/>
		<path class="st0" d="M24.2,481.3c0-28.4,0-56.3,0-84.7c28.2,0,56.1,0,84.5,0c0,28.2,0,56.2,0,84.7
			C80.7,481.3,52.7,481.3,24.2,481.3z M91.2,463c0-16.5,0-32.7,0-48.8c-16.7,0-33.1,0-49.5,0c0,16.4,0,32.5,0,48.8
			C58.3,463,74.5,463,91.2,463z"/>
		<path class="st0" d="M205.9,299.6c1.3-4.9,2.1-8.7,3.4-12.3c1.4-4,1.1-7.2-1-11c-15.9-28.8-0.4-62.8,28.8-71.9
			c35.9-11.3,66.8,16.7,66,49.5c-0.7,28.1-25.6,51.8-55.7,48.9c-5.5-0.5-11.1-2.4-16.1-4.9c-4.9-2.4-9.3-2.8-14.3-1.1
			C213.8,297.9,210.5,298.5,205.9,299.6z M267.2,281.7c0.2-0.4,0.4-0.8,0.7-1.2c1.9-0.3,4.1-0.1,5.7-0.9c4.5-2.2,9-4.8,9.2-10.8
			c0.2-5.6-5.3-4.9-8.1-7c-4.2-3.1-7.9-2.7-10.8,1.8c-2,3-4.8,4-7.7,1.6c-5.9-4.8-11.6-9.7-17-15c-0.9-0.9-0.5-4.5,0.5-5.8
			c2.4-3,3.2-5.8,1.4-9.3c-1.1-2.2-1.9-4.6-3-6.9c-2.2-4.9-7-5.7-11-1.9c-4.6,4.4-6.1,11.8-3.7,17.9c4.6,11.8,13,20.6,23,27.4
			C252.7,276.1,260.2,278.5,267.2,281.7z"/>
		<path class="st0" d="M41.2,193.2c0-5.2,0-10.5,0-16.3c6.2,0,11.8,0,17.4,0c0,5.3,0,10.6,0,16.3C52.4,193.2,46.8,193.2,41.2,193.2z
			"/>
		<path d="M394.3,379.9c0,5.2,0,10.3,0,15.9c-5.3,0-10.6,0-16.2,0c0-5.2,0-10.3,0-15.9C383.3,379.9,388.6,379.9,394.3,379.9z"/>
		<path d="M461.7,91.7c-16.6,0-32.8,0-49.4,0c0-16.3,0-32.3,0-48.8c16.3,0,32.6,0,49.4,0C461.7,58.9,461.7,75,461.7,91.7z"/>
		<path d="M91.2,91.6c-16.6,0-32.9,0-49.4,0c0-16.3,0-32.3,0-48.8c16.3,0,32.7,0,49.4,0C91.2,58.9,91.2,75,91.2,91.6z"/>
		<path d="M91.2,463c-16.7,0-32.9,0-49.5,0c0-16.3,0-32.3,0-48.8c16.4,0,32.7,0,49.5,0C91.2,430.3,91.2,446.5,91.2,463z"/>
		<path d="M267.2,281.7c-7-3.2-14.5-5.7-20.8-9.9c-10.1-6.9-18.4-15.7-23-27.4c-2.4-6.1-0.9-13.4,3.7-17.9c4-3.8,8.7-3,11,1.9
			c1,2.3,1.8,4.7,3,6.9c1.8,3.5,1,6.3-1.4,9.3c-1.1,1.3-1.5,4.9-0.5,5.8c5.4,5.3,11.1,10.2,17,15c2.9,2.4,5.7,1.4,7.7-1.6
			c3-4.6,6.7-4.9,10.8-1.8c2.9,2.1,8.3,1.4,8.1,7c-0.2,6-4.6,8.5-9.2,10.8c-1.7,0.8-3.8,0.6-5.7,0.9
			C267.6,280.9,267.4,281.3,267.2,281.7z"/>
	</g>
</g>
</svg>
